G04 #@! TF.GenerationSoftware,KiCad,Pcbnew,7.0.7*
G04 #@! TF.CreationDate,2023-10-21T10:48:55+02:00*
G04 #@! TF.ProjectId,halfduino,68616c66-6475-4696-9e6f-2e6b69636164,rev?*
G04 #@! TF.SameCoordinates,Original*
G04 #@! TF.FileFunction,Paste,Top*
G04 #@! TF.FilePolarity,Positive*
%FSLAX46Y46*%
G04 Gerber Fmt 4.6, Leading zero omitted, Abs format (unit mm)*
G04 Created by KiCad (PCBNEW 7.0.7) date 2023-10-21 10:48:55*
%MOMM*%
%LPD*%
G01*
G04 APERTURE LIST*
G04 Aperture macros list*
%AMRoundRect*
0 Rectangle with rounded corners*
0 $1 Rounding radius*
0 $2 $3 $4 $5 $6 $7 $8 $9 X,Y pos of 4 corners*
0 Add a 4 corners polygon primitive as box body*
4,1,4,$2,$3,$4,$5,$6,$7,$8,$9,$2,$3,0*
0 Add four circle primitives for the rounded corners*
1,1,$1+$1,$2,$3*
1,1,$1+$1,$4,$5*
1,1,$1+$1,$6,$7*
1,1,$1+$1,$8,$9*
0 Add four rect primitives between the rounded corners*
20,1,$1+$1,$2,$3,$4,$5,0*
20,1,$1+$1,$4,$5,$6,$7,0*
20,1,$1+$1,$6,$7,$8,$9,0*
20,1,$1+$1,$8,$9,$2,$3,0*%
G04 Aperture macros list end*
%ADD10RoundRect,0.062500X-0.062500X0.375000X-0.062500X-0.375000X0.062500X-0.375000X0.062500X0.375000X0*%
%ADD11RoundRect,0.062500X-0.375000X0.062500X-0.375000X-0.062500X0.375000X-0.062500X0.375000X0.062500X0*%
%ADD12RoundRect,0.237500X0.250000X0.237500X-0.250000X0.237500X-0.250000X-0.237500X0.250000X-0.237500X0*%
%ADD13RoundRect,0.237500X-0.300000X-0.237500X0.300000X-0.237500X0.300000X0.237500X-0.300000X0.237500X0*%
%ADD14RoundRect,0.237500X-0.250000X-0.237500X0.250000X-0.237500X0.250000X0.237500X-0.250000X0.237500X0*%
%ADD15RoundRect,0.237500X-0.237500X0.300000X-0.237500X-0.300000X0.237500X-0.300000X0.237500X0.300000X0*%
%ADD16RoundRect,0.237500X0.237500X-0.300000X0.237500X0.300000X-0.237500X0.300000X-0.237500X-0.300000X0*%
%ADD17RoundRect,0.237500X0.287500X0.237500X-0.287500X0.237500X-0.287500X-0.237500X0.287500X-0.237500X0*%
%ADD18RoundRect,0.237500X0.300000X0.237500X-0.300000X0.237500X-0.300000X-0.237500X0.300000X-0.237500X0*%
%ADD19RoundRect,0.250000X-0.625000X0.375000X-0.625000X-0.375000X0.625000X-0.375000X0.625000X0.375000X0*%
%ADD20R,1.300000X0.450000*%
%ADD21R,0.300000X1.400000*%
%ADD22R,0.400000X1.900000*%
%ADD23RoundRect,0.150000X0.150000X-0.512500X0.150000X0.512500X-0.150000X0.512500X-0.150000X-0.512500X0*%
%ADD24R,1.050000X0.650000*%
G04 APERTURE END LIST*
D10*
X106640000Y-70222500D03*
X106140000Y-70222500D03*
X105640000Y-70222500D03*
X105140000Y-70222500D03*
X104640000Y-70222500D03*
X104140000Y-70222500D03*
X103640000Y-70222500D03*
X103140000Y-70222500D03*
X102640000Y-70222500D03*
X102140000Y-70222500D03*
X101640000Y-70222500D03*
D11*
X100702500Y-71160000D03*
X100702500Y-71660000D03*
X100702500Y-72160000D03*
X100702500Y-72660000D03*
X100702500Y-73160000D03*
X100702500Y-73660000D03*
X100702500Y-74160000D03*
X100702500Y-74660000D03*
X100702500Y-75160000D03*
X100702500Y-75660000D03*
X100702500Y-76160000D03*
D10*
X101640000Y-77097500D03*
X102140000Y-77097500D03*
X102640000Y-77097500D03*
X103140000Y-77097500D03*
X103640000Y-77097500D03*
X104140000Y-77097500D03*
X104640000Y-77097500D03*
X105140000Y-77097500D03*
X105640000Y-77097500D03*
X106140000Y-77097500D03*
X106640000Y-77097500D03*
D11*
X107577500Y-76160000D03*
X107577500Y-75660000D03*
X107577500Y-75160000D03*
X107577500Y-74660000D03*
X107577500Y-74160000D03*
X107577500Y-73660000D03*
X107577500Y-73160000D03*
X107577500Y-72660000D03*
X107577500Y-72160000D03*
X107577500Y-71660000D03*
X107577500Y-71160000D03*
D12*
X96289500Y-66040000D03*
X94464500Y-66040000D03*
D13*
X97181500Y-69215000D03*
X98906500Y-69215000D03*
D14*
X96877500Y-82931000D03*
X98702500Y-82931000D03*
D15*
X104521000Y-80417500D03*
X104521000Y-82142500D03*
D12*
X96289500Y-64516000D03*
X94464500Y-64516000D03*
D16*
X92075000Y-77316500D03*
X92075000Y-75591500D03*
D13*
X96927500Y-81407000D03*
X98652500Y-81407000D03*
X97181500Y-67564000D03*
X98906500Y-67564000D03*
D16*
X92583000Y-66394500D03*
X92583000Y-64669500D03*
D14*
X88382500Y-85090000D03*
X90207500Y-85090000D03*
D17*
X114616200Y-67310000D03*
X112866200Y-67310000D03*
D18*
X98398500Y-74472800D03*
X96673500Y-74472800D03*
D15*
X102997000Y-80417500D03*
X102997000Y-82142500D03*
D13*
X109754500Y-74295000D03*
X111479500Y-74295000D03*
X88672500Y-75565000D03*
X90397500Y-75565000D03*
D14*
X98251000Y-79883000D03*
X100076000Y-79883000D03*
D17*
X93980000Y-83185000D03*
X92230000Y-83185000D03*
D19*
X85598000Y-77340000D03*
X85598000Y-80140000D03*
D17*
X93980000Y-85090000D03*
X92230000Y-85090000D03*
D20*
X89530000Y-68465000D03*
X89530000Y-69115000D03*
X89530000Y-69765000D03*
X89530000Y-70415000D03*
X89530000Y-71065000D03*
D21*
X92980000Y-73299500D03*
X93480000Y-73299500D03*
X93980000Y-73299500D03*
X94480000Y-73299500D03*
X94980000Y-73299500D03*
X94980000Y-68899500D03*
X94480000Y-68899500D03*
X93980000Y-68899500D03*
X93480000Y-68899500D03*
X92980000Y-68899500D03*
D22*
X102940000Y-65972200D03*
X104140000Y-65972200D03*
X105340000Y-65972200D03*
D14*
X112828700Y-65786000D03*
X114653700Y-65786000D03*
D13*
X105563500Y-67945000D03*
X107288500Y-67945000D03*
D23*
X88585000Y-79877500D03*
X89535000Y-79877500D03*
X90485000Y-79877500D03*
X90485000Y-77602500D03*
X88585000Y-77602500D03*
D14*
X88335500Y-83185000D03*
X90160500Y-83185000D03*
D24*
X85174000Y-61832000D03*
X89324000Y-61832000D03*
X85174000Y-63982000D03*
X89299000Y-63982000D03*
M02*
