G04 #@! TF.GenerationSoftware,KiCad,Pcbnew,7.0.7*
G04 #@! TF.CreationDate,2023-10-21T10:48:55+02:00*
G04 #@! TF.ProjectId,halfduino,68616c66-6475-4696-9e6f-2e6b69636164,rev?*
G04 #@! TF.SameCoordinates,Original*
G04 #@! TF.FileFunction,Legend,Top*
G04 #@! TF.FilePolarity,Positive*
%FSLAX46Y46*%
G04 Gerber Fmt 4.6, Leading zero omitted, Abs format (unit mm)*
G04 Created by KiCad (PCBNEW 7.0.7) date 2023-10-21 10:48:55*
%MOMM*%
%LPD*%
G01*
G04 APERTURE LIST*
G04 Aperture macros list*
%AMRoundRect*
0 Rectangle with rounded corners*
0 $1 Rounding radius*
0 $2 $3 $4 $5 $6 $7 $8 $9 X,Y pos of 4 corners*
0 Add a 4 corners polygon primitive as box body*
4,1,4,$2,$3,$4,$5,$6,$7,$8,$9,$2,$3,0*
0 Add four circle primitives for the rounded corners*
1,1,$1+$1,$2,$3*
1,1,$1+$1,$4,$5*
1,1,$1+$1,$6,$7*
1,1,$1+$1,$8,$9*
0 Add four rect primitives between the rounded corners*
20,1,$1+$1,$2,$3,$4,$5,0*
20,1,$1+$1,$4,$5,$6,$7,0*
20,1,$1+$1,$6,$7,$8,$9,0*
20,1,$1+$1,$8,$9,$2,$3,0*%
G04 Aperture macros list end*
%ADD10C,0.125000*%
%ADD11C,0.120000*%
%ADD12C,0.150000*%
%ADD13C,1.000000*%
%ADD14O,1.000000X1.000000*%
%ADD15R,1.000000X1.000000*%
%ADD16RoundRect,0.062500X-0.062500X0.375000X-0.062500X-0.375000X0.062500X-0.375000X0.062500X0.375000X0*%
%ADD17RoundRect,0.062500X-0.375000X0.062500X-0.375000X-0.062500X0.375000X-0.062500X0.375000X0.062500X0*%
%ADD18RoundRect,0.237500X0.250000X0.237500X-0.250000X0.237500X-0.250000X-0.237500X0.250000X-0.237500X0*%
%ADD19RoundRect,0.237500X-0.300000X-0.237500X0.300000X-0.237500X0.300000X0.237500X-0.300000X0.237500X0*%
%ADD20RoundRect,0.237500X-0.250000X-0.237500X0.250000X-0.237500X0.250000X0.237500X-0.250000X0.237500X0*%
%ADD21RoundRect,0.237500X-0.237500X0.300000X-0.237500X-0.300000X0.237500X-0.300000X0.237500X0.300000X0*%
%ADD22RoundRect,0.237500X0.237500X-0.300000X0.237500X0.300000X-0.237500X0.300000X-0.237500X-0.300000X0*%
%ADD23RoundRect,0.237500X0.287500X0.237500X-0.287500X0.237500X-0.287500X-0.237500X0.287500X-0.237500X0*%
%ADD24RoundRect,0.237500X0.300000X0.237500X-0.300000X0.237500X-0.300000X-0.237500X0.300000X-0.237500X0*%
%ADD25RoundRect,0.250000X-0.625000X0.375000X-0.625000X-0.375000X0.625000X-0.375000X0.625000X0.375000X0*%
%ADD26O,0.800000X0.800000*%
%ADD27R,1.300000X0.450000*%
%ADD28O,1.800000X1.150000*%
%ADD29O,2.000000X1.450000*%
%ADD30R,0.300000X1.400000*%
%ADD31R,0.400000X1.900000*%
%ADD32RoundRect,0.150000X0.150000X-0.512500X0.150000X0.512500X-0.150000X0.512500X-0.150000X-0.512500X0*%
%ADD33R,1.050000X0.650000*%
G04 APERTURE END LIST*
D10*
X109280668Y-70391547D02*
X108518764Y-70105833D01*
X108518764Y-70105833D02*
X109280668Y-69820119D01*
X112969331Y-71467452D02*
X113731236Y-71753166D01*
X113731236Y-71753166D02*
X112969331Y-72038880D01*
X88231452Y-81848668D02*
X88517166Y-81086764D01*
X88517166Y-81086764D02*
X88802880Y-81848668D01*
X92930452Y-75117668D02*
X93216166Y-74355764D01*
X93216166Y-74355764D02*
X93501880Y-75117668D01*
X102870095Y-72608119D02*
X102870095Y-73417642D01*
X102870095Y-73417642D02*
X102917714Y-73512880D01*
X102917714Y-73512880D02*
X102965333Y-73560500D01*
X102965333Y-73560500D02*
X103060571Y-73608119D01*
X103060571Y-73608119D02*
X103251047Y-73608119D01*
X103251047Y-73608119D02*
X103346285Y-73560500D01*
X103346285Y-73560500D02*
X103393904Y-73512880D01*
X103393904Y-73512880D02*
X103441523Y-73417642D01*
X103441523Y-73417642D02*
X103441523Y-72608119D01*
X104441523Y-73608119D02*
X103870095Y-73608119D01*
X104155809Y-73608119D02*
X104155809Y-72608119D01*
X104155809Y-72608119D02*
X104060571Y-72750976D01*
X104060571Y-72750976D02*
X103965333Y-72846214D01*
X103965333Y-72846214D02*
X103870095Y-72893833D01*
X110259905Y-67893119D02*
X110259905Y-66893119D01*
X110259905Y-66893119D02*
X110498000Y-66893119D01*
X110498000Y-66893119D02*
X110640857Y-66940738D01*
X110640857Y-66940738D02*
X110736095Y-67035976D01*
X110736095Y-67035976D02*
X110783714Y-67131214D01*
X110783714Y-67131214D02*
X110831333Y-67321690D01*
X110831333Y-67321690D02*
X110831333Y-67464547D01*
X110831333Y-67464547D02*
X110783714Y-67655023D01*
X110783714Y-67655023D02*
X110736095Y-67750261D01*
X110736095Y-67750261D02*
X110640857Y-67845500D01*
X110640857Y-67845500D02*
X110498000Y-67893119D01*
X110498000Y-67893119D02*
X110259905Y-67893119D01*
X111164667Y-66893119D02*
X111783714Y-66893119D01*
X111783714Y-66893119D02*
X111450381Y-67274071D01*
X111450381Y-67274071D02*
X111593238Y-67274071D01*
X111593238Y-67274071D02*
X111688476Y-67321690D01*
X111688476Y-67321690D02*
X111736095Y-67369309D01*
X111736095Y-67369309D02*
X111783714Y-67464547D01*
X111783714Y-67464547D02*
X111783714Y-67702642D01*
X111783714Y-67702642D02*
X111736095Y-67797880D01*
X111736095Y-67797880D02*
X111688476Y-67845500D01*
X111688476Y-67845500D02*
X111593238Y-67893119D01*
X111593238Y-67893119D02*
X111307524Y-67893119D01*
X111307524Y-67893119D02*
X111212286Y-67845500D01*
X111212286Y-67845500D02*
X111164667Y-67797880D01*
X92606905Y-82117119D02*
X92606905Y-81117119D01*
X92606905Y-81117119D02*
X92845000Y-81117119D01*
X92845000Y-81117119D02*
X92987857Y-81164738D01*
X92987857Y-81164738D02*
X93083095Y-81259976D01*
X93083095Y-81259976D02*
X93130714Y-81355214D01*
X93130714Y-81355214D02*
X93178333Y-81545690D01*
X93178333Y-81545690D02*
X93178333Y-81688547D01*
X93178333Y-81688547D02*
X93130714Y-81879023D01*
X93130714Y-81879023D02*
X93083095Y-81974261D01*
X93083095Y-81974261D02*
X92987857Y-82069500D01*
X92987857Y-82069500D02*
X92845000Y-82117119D01*
X92845000Y-82117119D02*
X92606905Y-82117119D01*
X94130714Y-82117119D02*
X93559286Y-82117119D01*
X93845000Y-82117119D02*
X93845000Y-81117119D01*
X93845000Y-81117119D02*
X93749762Y-81259976D01*
X93749762Y-81259976D02*
X93654524Y-81355214D01*
X93654524Y-81355214D02*
X93559286Y-81402833D01*
X92479905Y-87070119D02*
X92479905Y-86070119D01*
X92479905Y-86070119D02*
X92718000Y-86070119D01*
X92718000Y-86070119D02*
X92860857Y-86117738D01*
X92860857Y-86117738D02*
X92956095Y-86212976D01*
X92956095Y-86212976D02*
X93003714Y-86308214D01*
X93003714Y-86308214D02*
X93051333Y-86498690D01*
X93051333Y-86498690D02*
X93051333Y-86641547D01*
X93051333Y-86641547D02*
X93003714Y-86832023D01*
X93003714Y-86832023D02*
X92956095Y-86927261D01*
X92956095Y-86927261D02*
X92860857Y-87022500D01*
X92860857Y-87022500D02*
X92718000Y-87070119D01*
X92718000Y-87070119D02*
X92479905Y-87070119D01*
X93432286Y-86165357D02*
X93479905Y-86117738D01*
X93479905Y-86117738D02*
X93575143Y-86070119D01*
X93575143Y-86070119D02*
X93813238Y-86070119D01*
X93813238Y-86070119D02*
X93908476Y-86117738D01*
X93908476Y-86117738D02*
X93956095Y-86165357D01*
X93956095Y-86165357D02*
X94003714Y-86260595D01*
X94003714Y-86260595D02*
X94003714Y-86355833D01*
X94003714Y-86355833D02*
X93956095Y-86498690D01*
X93956095Y-86498690D02*
X93384667Y-87070119D01*
X93384667Y-87070119D02*
X94003714Y-87070119D01*
X86788666Y-69094119D02*
X86788666Y-69808404D01*
X86788666Y-69808404D02*
X86741047Y-69951261D01*
X86741047Y-69951261D02*
X86645809Y-70046500D01*
X86645809Y-70046500D02*
X86502952Y-70094119D01*
X86502952Y-70094119D02*
X86407714Y-70094119D01*
X87788666Y-70094119D02*
X87217238Y-70094119D01*
X87502952Y-70094119D02*
X87502952Y-69094119D01*
X87502952Y-69094119D02*
X87407714Y-69236976D01*
X87407714Y-69236976D02*
X87312476Y-69332214D01*
X87312476Y-69332214D02*
X87217238Y-69379833D01*
X93091095Y-70830119D02*
X93091095Y-71639642D01*
X93091095Y-71639642D02*
X93138714Y-71734880D01*
X93138714Y-71734880D02*
X93186333Y-71782500D01*
X93186333Y-71782500D02*
X93281571Y-71830119D01*
X93281571Y-71830119D02*
X93472047Y-71830119D01*
X93472047Y-71830119D02*
X93567285Y-71782500D01*
X93567285Y-71782500D02*
X93614904Y-71734880D01*
X93614904Y-71734880D02*
X93662523Y-71639642D01*
X93662523Y-71639642D02*
X93662523Y-70830119D01*
X94614904Y-70830119D02*
X94138714Y-70830119D01*
X94138714Y-70830119D02*
X94091095Y-71306309D01*
X94091095Y-71306309D02*
X94138714Y-71258690D01*
X94138714Y-71258690D02*
X94233952Y-71211071D01*
X94233952Y-71211071D02*
X94472047Y-71211071D01*
X94472047Y-71211071D02*
X94567285Y-71258690D01*
X94567285Y-71258690D02*
X94614904Y-71306309D01*
X94614904Y-71306309D02*
X94662523Y-71401547D01*
X94662523Y-71401547D02*
X94662523Y-71639642D01*
X94662523Y-71639642D02*
X94614904Y-71734880D01*
X94614904Y-71734880D02*
X94567285Y-71782500D01*
X94567285Y-71782500D02*
X94472047Y-71830119D01*
X94472047Y-71830119D02*
X94233952Y-71830119D01*
X94233952Y-71830119D02*
X94138714Y-71782500D01*
X94138714Y-71782500D02*
X94091095Y-71734880D01*
X91440095Y-78450119D02*
X91440095Y-79259642D01*
X91440095Y-79259642D02*
X91487714Y-79354880D01*
X91487714Y-79354880D02*
X91535333Y-79402500D01*
X91535333Y-79402500D02*
X91630571Y-79450119D01*
X91630571Y-79450119D02*
X91821047Y-79450119D01*
X91821047Y-79450119D02*
X91916285Y-79402500D01*
X91916285Y-79402500D02*
X91963904Y-79354880D01*
X91963904Y-79354880D02*
X92011523Y-79259642D01*
X92011523Y-79259642D02*
X92011523Y-78450119D01*
X92916285Y-78450119D02*
X92725809Y-78450119D01*
X92725809Y-78450119D02*
X92630571Y-78497738D01*
X92630571Y-78497738D02*
X92582952Y-78545357D01*
X92582952Y-78545357D02*
X92487714Y-78688214D01*
X92487714Y-78688214D02*
X92440095Y-78878690D01*
X92440095Y-78878690D02*
X92440095Y-79259642D01*
X92440095Y-79259642D02*
X92487714Y-79354880D01*
X92487714Y-79354880D02*
X92535333Y-79402500D01*
X92535333Y-79402500D02*
X92630571Y-79450119D01*
X92630571Y-79450119D02*
X92821047Y-79450119D01*
X92821047Y-79450119D02*
X92916285Y-79402500D01*
X92916285Y-79402500D02*
X92963904Y-79354880D01*
X92963904Y-79354880D02*
X93011523Y-79259642D01*
X93011523Y-79259642D02*
X93011523Y-79021547D01*
X93011523Y-79021547D02*
X92963904Y-78926309D01*
X92963904Y-78926309D02*
X92916285Y-78878690D01*
X92916285Y-78878690D02*
X92821047Y-78831071D01*
X92821047Y-78831071D02*
X92630571Y-78831071D01*
X92630571Y-78831071D02*
X92535333Y-78878690D01*
X92535333Y-78878690D02*
X92487714Y-78926309D01*
X92487714Y-78926309D02*
X92440095Y-79021547D01*
X85915667Y-63315500D02*
X86058524Y-63363119D01*
X86058524Y-63363119D02*
X86296619Y-63363119D01*
X86296619Y-63363119D02*
X86391857Y-63315500D01*
X86391857Y-63315500D02*
X86439476Y-63267880D01*
X86439476Y-63267880D02*
X86487095Y-63172642D01*
X86487095Y-63172642D02*
X86487095Y-63077404D01*
X86487095Y-63077404D02*
X86439476Y-62982166D01*
X86439476Y-62982166D02*
X86391857Y-62934547D01*
X86391857Y-62934547D02*
X86296619Y-62886928D01*
X86296619Y-62886928D02*
X86106143Y-62839309D01*
X86106143Y-62839309D02*
X86010905Y-62791690D01*
X86010905Y-62791690D02*
X85963286Y-62744071D01*
X85963286Y-62744071D02*
X85915667Y-62648833D01*
X85915667Y-62648833D02*
X85915667Y-62553595D01*
X85915667Y-62553595D02*
X85963286Y-62458357D01*
X85963286Y-62458357D02*
X86010905Y-62410738D01*
X86010905Y-62410738D02*
X86106143Y-62363119D01*
X86106143Y-62363119D02*
X86344238Y-62363119D01*
X86344238Y-62363119D02*
X86487095Y-62410738D01*
X86820429Y-62363119D02*
X87058524Y-63363119D01*
X87058524Y-63363119D02*
X87249000Y-62648833D01*
X87249000Y-62648833D02*
X87439476Y-63363119D01*
X87439476Y-63363119D02*
X87677572Y-62363119D01*
X88582333Y-63363119D02*
X88010905Y-63363119D01*
X88296619Y-63363119D02*
X88296619Y-62363119D01*
X88296619Y-62363119D02*
X88201381Y-62505976D01*
X88201381Y-62505976D02*
X88106143Y-62601214D01*
X88106143Y-62601214D02*
X88010905Y-62648833D01*
D11*
X100530000Y-70050000D02*
X101255000Y-70050000D01*
X107750000Y-70775000D02*
X107750000Y-70050000D01*
X100530000Y-70775000D02*
X100530000Y-70050000D01*
X107750000Y-76545000D02*
X107750000Y-77270000D01*
X100530000Y-76545000D02*
X100530000Y-77270000D01*
X107750000Y-77270000D02*
X107025000Y-77270000D01*
X100530000Y-77270000D02*
X101255000Y-77270000D01*
X95631724Y-66562500D02*
X95122276Y-66562500D01*
X95631724Y-65517500D02*
X95122276Y-65517500D01*
X97897733Y-68705000D02*
X98190267Y-68705000D01*
X97897733Y-69725000D02*
X98190267Y-69725000D01*
X97535276Y-82408500D02*
X98044724Y-82408500D01*
X97535276Y-83453500D02*
X98044724Y-83453500D01*
X105031000Y-81133733D02*
X105031000Y-81426267D01*
X104011000Y-81133733D02*
X104011000Y-81426267D01*
X95631724Y-65038500D02*
X95122276Y-65038500D01*
X95631724Y-63993500D02*
X95122276Y-63993500D01*
X91565000Y-76600267D02*
X91565000Y-76307733D01*
X92585000Y-76600267D02*
X92585000Y-76307733D01*
X97643733Y-80897000D02*
X97936267Y-80897000D01*
X97643733Y-81917000D02*
X97936267Y-81917000D01*
X97897733Y-67054000D02*
X98190267Y-67054000D01*
X97897733Y-68074000D02*
X98190267Y-68074000D01*
X92073000Y-65678267D02*
X92073000Y-65385733D01*
X93093000Y-65678267D02*
X93093000Y-65385733D01*
X89040276Y-84567500D02*
X89549724Y-84567500D01*
X89040276Y-85612500D02*
X89549724Y-85612500D01*
X115401200Y-68045000D02*
X115401200Y-66575000D01*
X115401200Y-66575000D02*
X112941200Y-66575000D01*
X112941200Y-68045000D02*
X115401200Y-68045000D01*
X97682267Y-74982800D02*
X97389733Y-74982800D01*
X97682267Y-73962800D02*
X97389733Y-73962800D01*
X103507000Y-81133733D02*
X103507000Y-81426267D01*
X102487000Y-81133733D02*
X102487000Y-81426267D01*
X110470733Y-73785000D02*
X110763267Y-73785000D01*
X110470733Y-74805000D02*
X110763267Y-74805000D01*
X89388733Y-75055000D02*
X89681267Y-75055000D01*
X89388733Y-76075000D02*
X89681267Y-76075000D01*
X98908776Y-79360500D02*
X99418224Y-79360500D01*
X98908776Y-80405500D02*
X99418224Y-80405500D01*
X94765000Y-83920000D02*
X94765000Y-82450000D01*
X94765000Y-82450000D02*
X92305000Y-82450000D01*
X92305000Y-83920000D02*
X94765000Y-83920000D01*
X97677200Y-72390000D02*
G75*
G03*
X97677200Y-72390000I-700000J0D01*
G01*
X86508000Y-78137936D02*
X86508000Y-79342064D01*
X84688000Y-78137936D02*
X84688000Y-79342064D01*
X94765000Y-85825000D02*
X94765000Y-84355000D01*
X94765000Y-84355000D02*
X92305000Y-84355000D01*
X92305000Y-85825000D02*
X94765000Y-85825000D01*
D12*
X88280000Y-65615000D02*
X86880000Y-65615000D01*
X84480000Y-65615000D02*
X84330000Y-65615000D01*
X84330000Y-65615000D02*
X84330000Y-65915000D01*
X84330000Y-65915000D02*
X83880000Y-65915000D01*
X90455000Y-67965000D02*
X90030000Y-67965000D01*
X90030000Y-67965000D02*
X90030000Y-66965000D01*
X90455000Y-68690000D02*
X90455000Y-67965000D01*
X90030000Y-71565000D02*
X90030000Y-72565000D01*
X84330000Y-73615000D02*
X84330000Y-73915000D01*
X83880000Y-73615000D02*
X84330000Y-73615000D01*
X86880000Y-73915000D02*
X88280000Y-73915000D01*
X84330000Y-73915000D02*
X84480000Y-73915000D01*
X92305000Y-72774500D02*
X92530000Y-72774500D01*
X92305000Y-72774500D02*
X92305000Y-69424500D01*
X92530000Y-72774500D02*
X92530000Y-73999500D01*
X95655000Y-72774500D02*
X95355000Y-72774500D01*
X95655000Y-72774500D02*
X95655000Y-69424500D01*
X92305000Y-69424500D02*
X92605000Y-69424500D01*
X95655000Y-69424500D02*
X95355000Y-69424500D01*
D11*
X102140000Y-64772200D02*
X102140000Y-66772200D01*
X102140000Y-66772200D02*
X102140000Y-67172200D01*
X102340000Y-64772200D02*
X103340000Y-64772200D01*
X102340000Y-66772200D02*
X102340000Y-64772200D01*
X102340000Y-66772200D02*
X102340000Y-67172200D01*
X103340000Y-67172200D02*
X102340000Y-67172200D01*
X103340000Y-67172200D02*
X103340000Y-67572200D01*
X105140000Y-64772200D02*
X105940000Y-64772200D01*
X105940000Y-64772200D02*
X105940000Y-66772200D01*
X105940000Y-66772200D02*
X105940000Y-67172200D01*
X105940000Y-67172200D02*
X105140000Y-67172200D01*
X113486476Y-65263500D02*
X113995924Y-65263500D01*
X113486476Y-66308500D02*
X113995924Y-66308500D01*
X106279733Y-67435000D02*
X106572267Y-67435000D01*
X106279733Y-68455000D02*
X106572267Y-68455000D01*
X87975000Y-78740000D02*
X87975000Y-80540000D01*
X87975000Y-78740000D02*
X87975000Y-77940000D01*
X91095000Y-78740000D02*
X91095000Y-79540000D01*
X91095000Y-78740000D02*
X91095000Y-77940000D01*
X88993276Y-82662500D02*
X89502724Y-82662500D01*
X88993276Y-83707500D02*
X89502724Y-83707500D01*
X85049000Y-62957000D02*
X85049000Y-62857000D01*
X85049000Y-64657000D02*
X89449000Y-64657000D01*
X89449000Y-61157000D02*
X85049000Y-61157000D01*
X89449000Y-62957000D02*
X89449000Y-62857000D01*
%LPC*%
D13*
X97790000Y-86360000D03*
D14*
X99060000Y-86360000D03*
X100330000Y-86360000D03*
X101600000Y-86360000D03*
X102870000Y-86360000D03*
D15*
X104140000Y-86360000D03*
X105410000Y-86360000D03*
D14*
X106680000Y-86360000D03*
D16*
X106640000Y-70222500D03*
X106140000Y-70222500D03*
X105640000Y-70222500D03*
X105140000Y-70222500D03*
X104640000Y-70222500D03*
X104140000Y-70222500D03*
X103640000Y-70222500D03*
X103140000Y-70222500D03*
X102640000Y-70222500D03*
X102140000Y-70222500D03*
X101640000Y-70222500D03*
D17*
X100702500Y-71160000D03*
X100702500Y-71660000D03*
X100702500Y-72160000D03*
X100702500Y-72660000D03*
X100702500Y-73160000D03*
X100702500Y-73660000D03*
X100702500Y-74160000D03*
X100702500Y-74660000D03*
X100702500Y-75160000D03*
X100702500Y-75660000D03*
X100702500Y-76160000D03*
D16*
X101640000Y-77097500D03*
X102140000Y-77097500D03*
X102640000Y-77097500D03*
X103140000Y-77097500D03*
X103640000Y-77097500D03*
X104140000Y-77097500D03*
X104640000Y-77097500D03*
X105140000Y-77097500D03*
X105640000Y-77097500D03*
X106140000Y-77097500D03*
X106640000Y-77097500D03*
D17*
X107577500Y-76160000D03*
X107577500Y-75660000D03*
X107577500Y-75160000D03*
X107577500Y-74660000D03*
X107577500Y-74160000D03*
X107577500Y-73660000D03*
X107577500Y-73160000D03*
X107577500Y-72660000D03*
X107577500Y-72160000D03*
X107577500Y-71660000D03*
X107577500Y-71160000D03*
D18*
X96289500Y-66040000D03*
X94464500Y-66040000D03*
D19*
X97181500Y-69215000D03*
X98906500Y-69215000D03*
D20*
X96877500Y-82931000D03*
X98702500Y-82931000D03*
D21*
X104521000Y-80417500D03*
X104521000Y-82142500D03*
D18*
X96289500Y-64516000D03*
X94464500Y-64516000D03*
D14*
X93218000Y-62230000D03*
X94488000Y-62230000D03*
X95758000Y-62230000D03*
D15*
X97028000Y-62230000D03*
D14*
X98298000Y-62230000D03*
X99568000Y-62230000D03*
X100838000Y-62230000D03*
X102108000Y-62230000D03*
X103378000Y-62230000D03*
X104648000Y-62230000D03*
D22*
X92075000Y-77316500D03*
X92075000Y-75591500D03*
D19*
X96927500Y-81407000D03*
X98652500Y-81407000D03*
X97181500Y-67564000D03*
X98906500Y-67564000D03*
D22*
X92583000Y-66394500D03*
X92583000Y-64669500D03*
D20*
X88382500Y-85090000D03*
X90207500Y-85090000D03*
D23*
X114616200Y-67310000D03*
X112866200Y-67310000D03*
D24*
X98398500Y-74472800D03*
X96673500Y-74472800D03*
D21*
X102997000Y-80417500D03*
X102997000Y-82142500D03*
D19*
X109754500Y-74295000D03*
X111479500Y-74295000D03*
X88672500Y-75565000D03*
X90397500Y-75565000D03*
D13*
X115697000Y-72390000D03*
D14*
X116967000Y-72390000D03*
X115697000Y-73660000D03*
X116967000Y-73660000D03*
X115697000Y-74930000D03*
D15*
X116967000Y-74930000D03*
D20*
X98251000Y-79883000D03*
X100076000Y-79883000D03*
D23*
X93980000Y-83185000D03*
X92230000Y-83185000D03*
D13*
X109220000Y-86360000D03*
D14*
X110490000Y-86360000D03*
X111760000Y-86360000D03*
X113030000Y-86360000D03*
X114300000Y-86360000D03*
X115570000Y-86360000D03*
D13*
X96977200Y-72390000D03*
D25*
X85598000Y-77340000D03*
X85598000Y-80140000D03*
D23*
X93980000Y-85090000D03*
X92230000Y-85090000D03*
D26*
X88430000Y-67265000D03*
X88430000Y-72265000D03*
D27*
X89530000Y-68465000D03*
X89530000Y-69115000D03*
X89530000Y-69765000D03*
X89530000Y-70415000D03*
X89530000Y-71065000D03*
D28*
X85680000Y-65890000D03*
D29*
X89480000Y-66040000D03*
X89480000Y-73490000D03*
D28*
X85680000Y-73640000D03*
D30*
X92980000Y-73299500D03*
X93480000Y-73299500D03*
X93980000Y-73299500D03*
X94480000Y-73299500D03*
X94980000Y-73299500D03*
X94980000Y-68899500D03*
X94480000Y-68899500D03*
X93980000Y-68899500D03*
X93480000Y-68899500D03*
X92980000Y-68899500D03*
D31*
X102940000Y-65972200D03*
X104140000Y-65972200D03*
X105340000Y-65972200D03*
D20*
X112828700Y-65786000D03*
X114653700Y-65786000D03*
D19*
X105563500Y-67945000D03*
X107288500Y-67945000D03*
D32*
X88585000Y-79877500D03*
X89535000Y-79877500D03*
X90485000Y-79877500D03*
X90485000Y-77602500D03*
X88585000Y-77602500D03*
D14*
X106680000Y-62230000D03*
X107950000Y-62230000D03*
X109220000Y-62230000D03*
X110490000Y-62230000D03*
X111760000Y-62230000D03*
X113030000Y-62230000D03*
X114300000Y-62230000D03*
X115570000Y-62230000D03*
D20*
X88335500Y-83185000D03*
X90160500Y-83185000D03*
D33*
X85174000Y-61832000D03*
X89324000Y-61832000D03*
X85174000Y-63982000D03*
X89299000Y-63982000D03*
%LPD*%
M02*
