M48
; DRILL file {KiCad 7.0.7} date Sat Oct 21 10:48:57 2023
; FORMAT={-:-/ absolute / metric / decimal}
; #@! TF.CreationDate,2023-10-21T10:48:57+02:00
; #@! TF.GenerationSoftware,Kicad,Pcbnew,7.0.7
; #@! TF.FileFunction,Plated,1,2,PTH
FMAT,2
METRIC
; #@! TA.AperFunction,Plated,PTH,ViaDrill
T1C0.400
; #@! TA.AperFunction,Plated,PTH,ComponentDrill
T2C0.550
; #@! TA.AperFunction,Plated,PTH,ComponentDrill
T3C0.650
; #@! TA.AperFunction,Plated,PTH,ComponentDrill
T4C0.850
%
G90
G05
T1
X84.455Y-67.733
X84.455Y-69.13
X84.455Y-70.527
X84.455Y-71.924
X84.582Y-85.217
X85.174Y-61.832
X85.598Y-86.741
X86.233Y-82.296
X86.614Y-68.089
X87.325Y-62.072
X87.503Y-77.978
X88.265Y-81.407
X89.299Y-63.982
X89.324Y-61.832
X89.535Y-78.613
X89.535Y-81.407
X90.576Y-71.949
X90.932Y-81.534
X93.255Y-77.597
X93.828Y-78.537
X94.107Y-71.353
X94.932Y-70.485
X94.932Y-71.882
X95.281Y-76.873
X95.377Y-75.692
X96.393Y-86.36
X96.673Y-74.473
X97.028Y-63.373
X97.273Y-70.494
X97.678Y-64.572
X98.17Y-65.442
X98.251Y-79.883
X98.361Y-74.422
X98.486Y-72.726
X98.712Y-70.909
X98.993Y-64.216
X99.822Y-78.232
X99.949Y-82.169
X100.419Y-68.231
X100.442Y-63.864
X100.457Y-83.096
X100.528Y-67.238
X101.235Y-66.531
X101.472Y-82.296
X101.689Y-78.232
X101.978Y-67.564
X102.425Y-75.692
X102.915Y-79.248
X102.997Y-82.169
X103.251Y-71.374
X104.14Y-84.963
X104.208Y-66.04
X104.521Y-74.332
X104.521Y-80.417
X104.521Y-82.169
X105.363Y-72.428
X105.406Y-73.608
X105.41Y-84.963
X105.664Y-63.214
X105.791Y-75.819
X106.223Y-81.178
X106.553Y-66.548
X107.288Y-67.945
X107.615Y-64.674
X107.615Y-69.215
X107.615Y-70.231
X107.696Y-84.709
X108.464Y-80.411
X108.738Y-81.372
X108.966Y-82.677
X109.982Y-82.55
X110.363Y-73.025
X110.998Y-76.073
X111.506Y-66.548
X111.506Y-68.834
X112.209Y-71.941
X112.268Y-76.581
X112.776Y-65.786
X112.776Y-68.834
X112.776Y-77.724
X112.971Y-72.703
X113.538Y-78.994
X114.02Y-69.78
X114.046Y-75.057
X114.3Y-79.756
X114.427Y-76.073
X114.575Y-77.779
X114.935Y-70.739
X115.13Y-81.983
X115.951Y-69.596
X116.078Y-84.328
X116.205Y-64.389
X116.23Y-63.5
X116.586Y-77.054
X116.586Y-79.248
X117.221Y-83.058
X117.348Y-68.986
X117.348Y-70.561
T3
X93.218Y-62.23
X94.488Y-62.23
X95.758Y-62.23
X97.028Y-62.23
X97.79Y-86.36
X98.298Y-62.23
X99.06Y-86.36
X99.568Y-62.23
X100.33Y-86.36
X100.838Y-62.23
X101.6Y-86.36
X102.108Y-62.23
X102.87Y-86.36
X103.378Y-62.23
X104.14Y-86.36
X104.648Y-62.23
X105.41Y-86.36
X106.68Y-62.23
X106.68Y-86.36
X107.95Y-62.23
X109.22Y-62.23
X109.22Y-86.36
X110.49Y-62.23
X110.49Y-86.36
X111.76Y-62.23
X111.76Y-86.36
X113.03Y-62.23
X113.03Y-86.36
X114.3Y-62.23
X114.3Y-86.36
X115.57Y-62.23
X115.57Y-86.36
X115.697Y-72.39
X115.697Y-73.66
X115.697Y-74.93
X116.967Y-72.39
X116.967Y-73.66
X116.967Y-74.93
T2
X86.005Y-65.89G85X85.355Y-65.89
G05
X86.005Y-73.64G85X85.355Y-73.64
G05
T4
X89.755Y-66.04G85X89.205Y-66.04
G05
X89.755Y-73.49G85X89.205Y-73.49
G05
T0
M30
