%TF.GenerationSoftware,KiCad,Pcbnew,7.0.7*%
%TF.CreationDate,2023-10-21T10:48:57+02:00*%
%TF.ProjectId,halfduino,68616c66-6475-4696-9e6f-2e6b69636164,rev?*%
%TF.SameCoordinates,Original*%
%TF.FileFunction,Drillmap*%
%TF.FilePolarity,Positive*%
%FSLAX45Y45*%
G04 Gerber Fmt 4.5, Leading zero omitted, Abs format (unit mm)*
G04 Created by KiCad (PCBNEW 7.0.7) date 2023-10-21 10:48:57*
%MOMM*%
%LPD*%
G01*
G04 APERTURE LIST*
%ADD10C,0.150000*%
%ADD11C,0.200000*%
%ADD12C,0.040000*%
%ADD13C,0.055000*%
%ADD14C,0.065000*%
%ADD15C,0.085000*%
G04 APERTURE END LIST*
D10*
X8445500Y-6096000D02*
X11620500Y-6096000D01*
X11684000Y-6731000D02*
X11811000Y-6858000D01*
X11684000Y-6159500D02*
G75*
G03*
X11620500Y-6096000I-63500J0D01*
G01*
X8382000Y-8699500D02*
G75*
G03*
X8445500Y-8763000I63500J0D01*
G01*
X11620500Y-8763000D02*
G75*
G03*
X11684000Y-8699500I0J63500D01*
G01*
X11811000Y-8382000D02*
X11684000Y-8509000D01*
X8445500Y-6096000D02*
G75*
G03*
X8382000Y-6159500I0J-63500D01*
G01*
X11684000Y-6159500D02*
X11684000Y-6731000D01*
X11684000Y-8509000D02*
X11684000Y-8699500D01*
X11811000Y-6858000D02*
X11811000Y-8382000D01*
X11620500Y-8763000D02*
X8445500Y-8763000D01*
X8382000Y-8699500D02*
X8382000Y-6159500D01*
D11*
D12*
X8425500Y-6753300D02*
X8465500Y-6793300D01*
X8465500Y-6753300D02*
X8425500Y-6793300D01*
X8425500Y-6893000D02*
X8465500Y-6933000D01*
X8465500Y-6893000D02*
X8425500Y-6933000D01*
X8425500Y-7032700D02*
X8465500Y-7072700D01*
X8465500Y-7032700D02*
X8425500Y-7072700D01*
X8425500Y-7172400D02*
X8465500Y-7212400D01*
X8465500Y-7172400D02*
X8425500Y-7212400D01*
X8438200Y-8501700D02*
X8478200Y-8541700D01*
X8478200Y-8501700D02*
X8438200Y-8541700D01*
X8497400Y-6163200D02*
X8537400Y-6203200D01*
X8537400Y-6163200D02*
X8497400Y-6203200D01*
X8539800Y-8654100D02*
X8579800Y-8694100D01*
X8579800Y-8654100D02*
X8539800Y-8694100D01*
X8603300Y-8209600D02*
X8643300Y-8249600D01*
X8643300Y-8209600D02*
X8603300Y-8249600D01*
X8641400Y-6788860D02*
X8681400Y-6828860D01*
X8681400Y-6788860D02*
X8641400Y-6828860D01*
X8712520Y-6187250D02*
X8752520Y-6227250D01*
X8752520Y-6187250D02*
X8712520Y-6227250D01*
X8730300Y-7777800D02*
X8770300Y-7817800D01*
X8770300Y-7777800D02*
X8730300Y-7817800D01*
X8806500Y-8120700D02*
X8846500Y-8160700D01*
X8846500Y-8120700D02*
X8806500Y-8160700D01*
X8909900Y-6378200D02*
X8949900Y-6418200D01*
X8949900Y-6378200D02*
X8909900Y-6418200D01*
X8912400Y-6163200D02*
X8952400Y-6203200D01*
X8952400Y-6163200D02*
X8912400Y-6203200D01*
X8933500Y-7841300D02*
X8973500Y-7881300D01*
X8973500Y-7841300D02*
X8933500Y-7881300D01*
X8933500Y-8120700D02*
X8973500Y-8160700D01*
X8973500Y-8120700D02*
X8933500Y-8160700D01*
X9037640Y-7174940D02*
X9077640Y-7214940D01*
X9077640Y-7174940D02*
X9037640Y-7214940D01*
X9073200Y-8133400D02*
X9113200Y-8173400D01*
X9113200Y-8133400D02*
X9073200Y-8173400D01*
X9305550Y-7739700D02*
X9345550Y-7779700D01*
X9345550Y-7739700D02*
X9305550Y-7779700D01*
X9362760Y-7833680D02*
X9402760Y-7873680D01*
X9402760Y-7833680D02*
X9362760Y-7873680D01*
X9390700Y-7115350D02*
X9430700Y-7155350D01*
X9430700Y-7115350D02*
X9390700Y-7155350D01*
X9473200Y-7028500D02*
X9513200Y-7068500D01*
X9513200Y-7028500D02*
X9473200Y-7068500D01*
X9473200Y-7168200D02*
X9513200Y-7208200D01*
X9513200Y-7168200D02*
X9473200Y-7208200D01*
X9508150Y-7667250D02*
X9548150Y-7707250D01*
X9548150Y-7667250D02*
X9508150Y-7707250D01*
X9517700Y-7549200D02*
X9557700Y-7589200D01*
X9557700Y-7549200D02*
X9517700Y-7589200D01*
X9619300Y-8616000D02*
X9659300Y-8656000D01*
X9659300Y-8616000D02*
X9619300Y-8656000D01*
X9647350Y-7427280D02*
X9687350Y-7467280D01*
X9687350Y-7427280D02*
X9647350Y-7467280D01*
X9682800Y-6317300D02*
X9722800Y-6357300D01*
X9722800Y-6317300D02*
X9682800Y-6357300D01*
X9707270Y-7029430D02*
X9747270Y-7069430D01*
X9747270Y-7029430D02*
X9707270Y-7069430D01*
X9747829Y-6437209D02*
X9787829Y-6477209D01*
X9787829Y-6437209D02*
X9747829Y-6477209D01*
X9796960Y-6524250D02*
X9836960Y-6564250D01*
X9836960Y-6524250D02*
X9796960Y-6564250D01*
X9805100Y-7968300D02*
X9845100Y-8008300D01*
X9845100Y-7968300D02*
X9805100Y-8008300D01*
X9816100Y-7422200D02*
X9856100Y-7462200D01*
X9856100Y-7422200D02*
X9816100Y-7462200D01*
X9828638Y-7252619D02*
X9868638Y-7292619D01*
X9868638Y-7252619D02*
X9828638Y-7292619D01*
X9851210Y-7070910D02*
X9891210Y-7110910D01*
X9891210Y-7070910D02*
X9851210Y-7110910D01*
X9879290Y-6401589D02*
X9919290Y-6441589D01*
X9919290Y-6401589D02*
X9879290Y-6441589D01*
X9962200Y-7803200D02*
X10002200Y-7843200D01*
X10002200Y-7803200D02*
X9962200Y-7843200D01*
X9974900Y-8196900D02*
X10014900Y-8236900D01*
X10014900Y-8196900D02*
X9974900Y-8236900D01*
X10021950Y-6803118D02*
X10061950Y-6843118D01*
X10061950Y-6803118D02*
X10021950Y-6843118D01*
X10024240Y-6366370D02*
X10064240Y-6406370D01*
X10064240Y-6366370D02*
X10024240Y-6406370D01*
X10025700Y-8289550D02*
X10065700Y-8329550D01*
X10065700Y-8289550D02*
X10025700Y-8329550D01*
X10032821Y-6703808D02*
X10072821Y-6743808D01*
X10072821Y-6703808D02*
X10032821Y-6743808D01*
X10103497Y-6633133D02*
X10143497Y-6673133D01*
X10143497Y-6633133D02*
X10103497Y-6673133D01*
X10127250Y-8209600D02*
X10167250Y-8249600D01*
X10167250Y-8209600D02*
X10127250Y-8249600D01*
X10148950Y-7803200D02*
X10188950Y-7843200D01*
X10188950Y-7803200D02*
X10148950Y-7843200D01*
X10177771Y-6736400D02*
X10217771Y-6776400D01*
X10217771Y-6736400D02*
X10177771Y-6776400D01*
X10222550Y-7549200D02*
X10262550Y-7589200D01*
X10262550Y-7549200D02*
X10222550Y-7589200D01*
X10271550Y-7904800D02*
X10311550Y-7944800D01*
X10311550Y-7904800D02*
X10271550Y-7944800D01*
X10279700Y-8196900D02*
X10319700Y-8236900D01*
X10319700Y-8196900D02*
X10279700Y-8236900D01*
X10305100Y-7117400D02*
X10345100Y-7157400D01*
X10345100Y-7117400D02*
X10305100Y-7157400D01*
X10394000Y-8476300D02*
X10434000Y-8516300D01*
X10434000Y-8476300D02*
X10394000Y-8516300D01*
X10400780Y-6584000D02*
X10440780Y-6624000D01*
X10440780Y-6584000D02*
X10400780Y-6624000D01*
X10432100Y-7413250D02*
X10472100Y-7453250D01*
X10472100Y-7413250D02*
X10432100Y-7453250D01*
X10432100Y-8021750D02*
X10472100Y-8061750D01*
X10472100Y-8021750D02*
X10432100Y-8061750D01*
X10432100Y-8196900D02*
X10472100Y-8236900D01*
X10472100Y-8196900D02*
X10432100Y-8236900D01*
X10516347Y-7222793D02*
X10556347Y-7262793D01*
X10556347Y-7222793D02*
X10516347Y-7262793D01*
X10520570Y-7340800D02*
X10560570Y-7380800D01*
X10560570Y-7340800D02*
X10520570Y-7380800D01*
X10521000Y-8476300D02*
X10561000Y-8516300D01*
X10561000Y-8476300D02*
X10521000Y-8516300D01*
X10546400Y-6301450D02*
X10586400Y-6341450D01*
X10586400Y-6301450D02*
X10546400Y-6341450D01*
X10559100Y-7561900D02*
X10599100Y-7601900D01*
X10599100Y-7561900D02*
X10559100Y-7601900D01*
X10602280Y-8097840D02*
X10642280Y-8137840D01*
X10642280Y-8097840D02*
X10602280Y-8137840D01*
X10635300Y-6634800D02*
X10675300Y-6674800D01*
X10675300Y-6634800D02*
X10635300Y-6674800D01*
X10708850Y-6774500D02*
X10748850Y-6814500D01*
X10748850Y-6774500D02*
X10708850Y-6814500D01*
X10741550Y-6447450D02*
X10781550Y-6487450D01*
X10781550Y-6447450D02*
X10741550Y-6487450D01*
X10741550Y-6901500D02*
X10781550Y-6941500D01*
X10781550Y-6901500D02*
X10741550Y-6941500D01*
X10741550Y-7003100D02*
X10781550Y-7043100D01*
X10781550Y-7003100D02*
X10741550Y-7043100D01*
X10749600Y-8450900D02*
X10789600Y-8490900D01*
X10789600Y-8450900D02*
X10749600Y-8490900D01*
X10826361Y-8021079D02*
X10866361Y-8061079D01*
X10866361Y-8021079D02*
X10826361Y-8061079D01*
X10853824Y-8117182D02*
X10893824Y-8157182D01*
X10893824Y-8117182D02*
X10853824Y-8157182D01*
X10876600Y-8247700D02*
X10916600Y-8287700D01*
X10916600Y-8247700D02*
X10876600Y-8287700D01*
X10978200Y-8235000D02*
X11018200Y-8275000D01*
X11018200Y-8235000D02*
X10978200Y-8275000D01*
X11016300Y-7282500D02*
X11056300Y-7322500D01*
X11056300Y-7282500D02*
X11016300Y-7322500D01*
X11079800Y-7587300D02*
X11119800Y-7627300D01*
X11119800Y-7587300D02*
X11079800Y-7627300D01*
X11130600Y-6634800D02*
X11170600Y-6674800D01*
X11170600Y-6634800D02*
X11130600Y-6674800D01*
X11130600Y-6863400D02*
X11170600Y-6903400D01*
X11170600Y-6863400D02*
X11130600Y-6903400D01*
X11200950Y-7174050D02*
X11240950Y-7214050D01*
X11240950Y-7174050D02*
X11200950Y-7214050D01*
X11206800Y-7638100D02*
X11246800Y-7678100D01*
X11246800Y-7638100D02*
X11206800Y-7678100D01*
X11257600Y-6558600D02*
X11297600Y-6598600D01*
X11297600Y-6558600D02*
X11257600Y-6598600D01*
X11257600Y-6863400D02*
X11297600Y-6903400D01*
X11297600Y-6863400D02*
X11257600Y-6903400D01*
X11257600Y-7752400D02*
X11297600Y-7792400D01*
X11297600Y-7752400D02*
X11257600Y-7792400D01*
X11277150Y-7250250D02*
X11317150Y-7290250D01*
X11317150Y-7250250D02*
X11277150Y-7290250D01*
X11333800Y-7879400D02*
X11373800Y-7919400D01*
X11373800Y-7879400D02*
X11333800Y-7919400D01*
X11382050Y-6957964D02*
X11422050Y-6997964D01*
X11422050Y-6957964D02*
X11382050Y-6997964D01*
X11384600Y-7485700D02*
X11424600Y-7525700D01*
X11424600Y-7485700D02*
X11384600Y-7525700D01*
X11410000Y-7955600D02*
X11450000Y-7995600D01*
X11450000Y-7955600D02*
X11410000Y-7995600D01*
X11422700Y-7587300D02*
X11462700Y-7627300D01*
X11462700Y-7587300D02*
X11422700Y-7627300D01*
X11437458Y-7757895D02*
X11477458Y-7797895D01*
X11477458Y-7757895D02*
X11437458Y-7797895D01*
X11473500Y-7053900D02*
X11513500Y-7093900D01*
X11513500Y-7053900D02*
X11473500Y-7093900D01*
X11492980Y-8178280D02*
X11532980Y-8218280D01*
X11532980Y-8178280D02*
X11492980Y-8218280D01*
X11575100Y-6939600D02*
X11615100Y-6979600D01*
X11615100Y-6939600D02*
X11575100Y-6979600D01*
X11587800Y-8412800D02*
X11627800Y-8452800D01*
X11627800Y-8412800D02*
X11587800Y-8452800D01*
X11600500Y-6418900D02*
X11640500Y-6458900D01*
X11640500Y-6418900D02*
X11600500Y-6458900D01*
X11603040Y-6330000D02*
X11643040Y-6370000D01*
X11643040Y-6330000D02*
X11603040Y-6370000D01*
X11638600Y-7685445D02*
X11678600Y-7725445D01*
X11678600Y-7685445D02*
X11638600Y-7725445D01*
X11638600Y-7904800D02*
X11678600Y-7944800D01*
X11678600Y-7904800D02*
X11638600Y-7944800D01*
X11702100Y-8285800D02*
X11742100Y-8325800D01*
X11742100Y-8285800D02*
X11702100Y-8325800D01*
X11714800Y-6878640D02*
X11754800Y-6918640D01*
X11754800Y-6878640D02*
X11714800Y-6918640D01*
X11714800Y-7036120D02*
X11754800Y-7076120D01*
X11754800Y-7036120D02*
X11714800Y-7076120D01*
D13*
X8595500Y-6589000D02*
G75*
G03*
X8595500Y-6589000I-27500J0D01*
G01*
D11*
X8600500Y-6561500D02*
X8535500Y-6561500D01*
X8535500Y-6561500D02*
G75*
G03*
X8535500Y-6616500I0J-27500D01*
G01*
X8535500Y-6616500D02*
X8600500Y-6616500D01*
X8600500Y-6616500D02*
G75*
G03*
X8600500Y-6561500I0J27500D01*
G01*
D13*
X8595500Y-7364000D02*
G75*
G03*
X8595500Y-7364000I-27500J0D01*
G01*
D11*
X8600500Y-7336500D02*
X8535500Y-7336500D01*
X8535500Y-7336500D02*
G75*
G03*
X8535500Y-7391500I0J-27500D01*
G01*
X8535500Y-7391500D02*
X8600500Y-7391500D01*
X8600500Y-7391500D02*
G75*
G03*
X8600500Y-7336500I0J27500D01*
G01*
D14*
X9321800Y-6190500D02*
X9321800Y-6255500D01*
X9289300Y-6223000D02*
X9354300Y-6223000D01*
X9448800Y-6190500D02*
X9448800Y-6255500D01*
X9416300Y-6223000D02*
X9481300Y-6223000D01*
X9575800Y-6190500D02*
X9575800Y-6255500D01*
X9543300Y-6223000D02*
X9608300Y-6223000D01*
X9702800Y-6190500D02*
X9702800Y-6255500D01*
X9670300Y-6223000D02*
X9735300Y-6223000D01*
X9779000Y-8603500D02*
X9779000Y-8668500D01*
X9746500Y-8636000D02*
X9811500Y-8636000D01*
X9829800Y-6190500D02*
X9829800Y-6255500D01*
X9797300Y-6223000D02*
X9862300Y-6223000D01*
X9906000Y-8603500D02*
X9906000Y-8668500D01*
X9873500Y-8636000D02*
X9938500Y-8636000D01*
X9956800Y-6190500D02*
X9956800Y-6255500D01*
X9924300Y-6223000D02*
X9989300Y-6223000D01*
X10033000Y-8603500D02*
X10033000Y-8668500D01*
X10000500Y-8636000D02*
X10065500Y-8636000D01*
X10083800Y-6190500D02*
X10083800Y-6255500D01*
X10051300Y-6223000D02*
X10116300Y-6223000D01*
X10160000Y-8603500D02*
X10160000Y-8668500D01*
X10127500Y-8636000D02*
X10192500Y-8636000D01*
X10210800Y-6190500D02*
X10210800Y-6255500D01*
X10178300Y-6223000D02*
X10243300Y-6223000D01*
X10287000Y-8603500D02*
X10287000Y-8668500D01*
X10254500Y-8636000D02*
X10319500Y-8636000D01*
X10337800Y-6190500D02*
X10337800Y-6255500D01*
X10305300Y-6223000D02*
X10370300Y-6223000D01*
X10414000Y-8603500D02*
X10414000Y-8668500D01*
X10381500Y-8636000D02*
X10446500Y-8636000D01*
X10464800Y-6190500D02*
X10464800Y-6255500D01*
X10432300Y-6223000D02*
X10497300Y-6223000D01*
X10541000Y-8603500D02*
X10541000Y-8668500D01*
X10508500Y-8636000D02*
X10573500Y-8636000D01*
X10668000Y-6190500D02*
X10668000Y-6255500D01*
X10635500Y-6223000D02*
X10700500Y-6223000D01*
X10668000Y-8603500D02*
X10668000Y-8668500D01*
X10635500Y-8636000D02*
X10700500Y-8636000D01*
X10795000Y-6190500D02*
X10795000Y-6255500D01*
X10762500Y-6223000D02*
X10827500Y-6223000D01*
X10922000Y-6190500D02*
X10922000Y-6255500D01*
X10889500Y-6223000D02*
X10954500Y-6223000D01*
X10922000Y-8603500D02*
X10922000Y-8668500D01*
X10889500Y-8636000D02*
X10954500Y-8636000D01*
X11049000Y-6190500D02*
X11049000Y-6255500D01*
X11016500Y-6223000D02*
X11081500Y-6223000D01*
X11049000Y-8603500D02*
X11049000Y-8668500D01*
X11016500Y-8636000D02*
X11081500Y-8636000D01*
X11176000Y-6190500D02*
X11176000Y-6255500D01*
X11143500Y-6223000D02*
X11208500Y-6223000D01*
X11176000Y-8603500D02*
X11176000Y-8668500D01*
X11143500Y-8636000D02*
X11208500Y-8636000D01*
X11303000Y-6190500D02*
X11303000Y-6255500D01*
X11270500Y-6223000D02*
X11335500Y-6223000D01*
X11303000Y-8603500D02*
X11303000Y-8668500D01*
X11270500Y-8636000D02*
X11335500Y-8636000D01*
X11430000Y-6190500D02*
X11430000Y-6255500D01*
X11397500Y-6223000D02*
X11462500Y-6223000D01*
X11430000Y-8603500D02*
X11430000Y-8668500D01*
X11397500Y-8636000D02*
X11462500Y-8636000D01*
X11557000Y-6190500D02*
X11557000Y-6255500D01*
X11524500Y-6223000D02*
X11589500Y-6223000D01*
X11557000Y-8603500D02*
X11557000Y-8668500D01*
X11524500Y-8636000D02*
X11589500Y-8636000D01*
X11569700Y-7206500D02*
X11569700Y-7271500D01*
X11537200Y-7239000D02*
X11602200Y-7239000D01*
X11569700Y-7333500D02*
X11569700Y-7398500D01*
X11537200Y-7366000D02*
X11602200Y-7366000D01*
X11569700Y-7460500D02*
X11569700Y-7525500D01*
X11537200Y-7493000D02*
X11602200Y-7493000D01*
X11696700Y-7206500D02*
X11696700Y-7271500D01*
X11664200Y-7239000D02*
X11729200Y-7239000D01*
X11696700Y-7333500D02*
X11696700Y-7398500D01*
X11664200Y-7366000D02*
X11729200Y-7366000D01*
X11696700Y-7460500D02*
X11696700Y-7525500D01*
X11664200Y-7493000D02*
X11729200Y-7493000D01*
D15*
X8978052Y-6634052D02*
X8978052Y-6573948D01*
X8917948Y-6573948D01*
X8917948Y-6634052D01*
X8978052Y-6634052D01*
D11*
X8975500Y-6561500D02*
X8920500Y-6561500D01*
X8920500Y-6561500D02*
G75*
G03*
X8920500Y-6646500I0J-42500D01*
G01*
X8920500Y-6646500D02*
X8975500Y-6646500D01*
X8975500Y-6646500D02*
G75*
G03*
X8975500Y-6561500I0J42500D01*
G01*
D15*
X8978052Y-7379052D02*
X8978052Y-7318948D01*
X8917948Y-7318948D01*
X8917948Y-7379052D01*
X8978052Y-7379052D01*
D11*
X8975500Y-7306500D02*
X8920500Y-7306500D01*
X8920500Y-7306500D02*
G75*
G03*
X8920500Y-7391500I0J-42500D01*
G01*
X8920500Y-7391500D02*
X8975500Y-7391500D01*
X8975500Y-7391500D02*
G75*
G03*
X8975500Y-7306500I0J42500D01*
G01*
X8635277Y-9081984D02*
X8635277Y-8881984D01*
X8635277Y-8881984D02*
X8682896Y-8881984D01*
X8682896Y-8881984D02*
X8711467Y-8891508D01*
X8711467Y-8891508D02*
X8730515Y-8910555D01*
X8730515Y-8910555D02*
X8740039Y-8929603D01*
X8740039Y-8929603D02*
X8749563Y-8967698D01*
X8749563Y-8967698D02*
X8749563Y-8996270D01*
X8749563Y-8996270D02*
X8740039Y-9034365D01*
X8740039Y-9034365D02*
X8730515Y-9053412D01*
X8730515Y-9053412D02*
X8711467Y-9072460D01*
X8711467Y-9072460D02*
X8682896Y-9081984D01*
X8682896Y-9081984D02*
X8635277Y-9081984D01*
X8835277Y-9081984D02*
X8835277Y-8948650D01*
X8835277Y-8986746D02*
X8844801Y-8967698D01*
X8844801Y-8967698D02*
X8854324Y-8958174D01*
X8854324Y-8958174D02*
X8873372Y-8948650D01*
X8873372Y-8948650D02*
X8892420Y-8948650D01*
X8959086Y-9081984D02*
X8959086Y-8948650D01*
X8959086Y-8881984D02*
X8949563Y-8891508D01*
X8949563Y-8891508D02*
X8959086Y-8901031D01*
X8959086Y-8901031D02*
X8968610Y-8891508D01*
X8968610Y-8891508D02*
X8959086Y-8881984D01*
X8959086Y-8881984D02*
X8959086Y-8901031D01*
X9082896Y-9081984D02*
X9063848Y-9072460D01*
X9063848Y-9072460D02*
X9054324Y-9053412D01*
X9054324Y-9053412D02*
X9054324Y-8881984D01*
X9187658Y-9081984D02*
X9168610Y-9072460D01*
X9168610Y-9072460D02*
X9159086Y-9053412D01*
X9159086Y-9053412D02*
X9159086Y-8881984D01*
X9416229Y-9081984D02*
X9416229Y-8881984D01*
X9416229Y-8881984D02*
X9482896Y-9024841D01*
X9482896Y-9024841D02*
X9549563Y-8881984D01*
X9549563Y-8881984D02*
X9549563Y-9081984D01*
X9730515Y-9081984D02*
X9730515Y-8977222D01*
X9730515Y-8977222D02*
X9720991Y-8958174D01*
X9720991Y-8958174D02*
X9701944Y-8948650D01*
X9701944Y-8948650D02*
X9663848Y-8948650D01*
X9663848Y-8948650D02*
X9644801Y-8958174D01*
X9730515Y-9072460D02*
X9711467Y-9081984D01*
X9711467Y-9081984D02*
X9663848Y-9081984D01*
X9663848Y-9081984D02*
X9644801Y-9072460D01*
X9644801Y-9072460D02*
X9635277Y-9053412D01*
X9635277Y-9053412D02*
X9635277Y-9034365D01*
X9635277Y-9034365D02*
X9644801Y-9015317D01*
X9644801Y-9015317D02*
X9663848Y-9005793D01*
X9663848Y-9005793D02*
X9711467Y-9005793D01*
X9711467Y-9005793D02*
X9730515Y-8996270D01*
X9825753Y-8948650D02*
X9825753Y-9148650D01*
X9825753Y-8958174D02*
X9844801Y-8948650D01*
X9844801Y-8948650D02*
X9882896Y-8948650D01*
X9882896Y-8948650D02*
X9901944Y-8958174D01*
X9901944Y-8958174D02*
X9911467Y-8967698D01*
X9911467Y-8967698D02*
X9920991Y-8986746D01*
X9920991Y-8986746D02*
X9920991Y-9043889D01*
X9920991Y-9043889D02*
X9911467Y-9062936D01*
X9911467Y-9062936D02*
X9901944Y-9072460D01*
X9901944Y-9072460D02*
X9882896Y-9081984D01*
X9882896Y-9081984D02*
X9844801Y-9081984D01*
X9844801Y-9081984D02*
X9825753Y-9072460D01*
X10006705Y-9062936D02*
X10016229Y-9072460D01*
X10016229Y-9072460D02*
X10006705Y-9081984D01*
X10006705Y-9081984D02*
X9997182Y-9072460D01*
X9997182Y-9072460D02*
X10006705Y-9062936D01*
X10006705Y-9062936D02*
X10006705Y-9081984D01*
X10006705Y-8958174D02*
X10016229Y-8967698D01*
X10016229Y-8967698D02*
X10006705Y-8977222D01*
X10006705Y-8977222D02*
X9997182Y-8967698D01*
X9997182Y-8967698D02*
X10006705Y-8958174D01*
X10006705Y-8958174D02*
X10006705Y-8977222D01*
D12*
X8334500Y-9390500D02*
X8374500Y-9430500D01*
X8374500Y-9390500D02*
X8334500Y-9430500D01*
D11*
X8673372Y-9301984D02*
X8692420Y-9301984D01*
X8692420Y-9301984D02*
X8711467Y-9311508D01*
X8711467Y-9311508D02*
X8720991Y-9321031D01*
X8720991Y-9321031D02*
X8730515Y-9340079D01*
X8730515Y-9340079D02*
X8740039Y-9378174D01*
X8740039Y-9378174D02*
X8740039Y-9425793D01*
X8740039Y-9425793D02*
X8730515Y-9463889D01*
X8730515Y-9463889D02*
X8720991Y-9482936D01*
X8720991Y-9482936D02*
X8711467Y-9492460D01*
X8711467Y-9492460D02*
X8692420Y-9501984D01*
X8692420Y-9501984D02*
X8673372Y-9501984D01*
X8673372Y-9501984D02*
X8654324Y-9492460D01*
X8654324Y-9492460D02*
X8644801Y-9482936D01*
X8644801Y-9482936D02*
X8635277Y-9463889D01*
X8635277Y-9463889D02*
X8625753Y-9425793D01*
X8625753Y-9425793D02*
X8625753Y-9378174D01*
X8625753Y-9378174D02*
X8635277Y-9340079D01*
X8635277Y-9340079D02*
X8644801Y-9321031D01*
X8644801Y-9321031D02*
X8654324Y-9311508D01*
X8654324Y-9311508D02*
X8673372Y-9301984D01*
X8825753Y-9482936D02*
X8835277Y-9492460D01*
X8835277Y-9492460D02*
X8825753Y-9501984D01*
X8825753Y-9501984D02*
X8816229Y-9492460D01*
X8816229Y-9492460D02*
X8825753Y-9482936D01*
X8825753Y-9482936D02*
X8825753Y-9501984D01*
X9006705Y-9368650D02*
X9006705Y-9501984D01*
X8959086Y-9292460D02*
X8911467Y-9435317D01*
X8911467Y-9435317D02*
X9035277Y-9435317D01*
X9149563Y-9301984D02*
X9168610Y-9301984D01*
X9168610Y-9301984D02*
X9187658Y-9311508D01*
X9187658Y-9311508D02*
X9197182Y-9321031D01*
X9197182Y-9321031D02*
X9206705Y-9340079D01*
X9206705Y-9340079D02*
X9216229Y-9378174D01*
X9216229Y-9378174D02*
X9216229Y-9425793D01*
X9216229Y-9425793D02*
X9206705Y-9463889D01*
X9206705Y-9463889D02*
X9197182Y-9482936D01*
X9197182Y-9482936D02*
X9187658Y-9492460D01*
X9187658Y-9492460D02*
X9168610Y-9501984D01*
X9168610Y-9501984D02*
X9149563Y-9501984D01*
X9149563Y-9501984D02*
X9130515Y-9492460D01*
X9130515Y-9492460D02*
X9120991Y-9482936D01*
X9120991Y-9482936D02*
X9111467Y-9463889D01*
X9111467Y-9463889D02*
X9101944Y-9425793D01*
X9101944Y-9425793D02*
X9101944Y-9378174D01*
X9101944Y-9378174D02*
X9111467Y-9340079D01*
X9111467Y-9340079D02*
X9120991Y-9321031D01*
X9120991Y-9321031D02*
X9130515Y-9311508D01*
X9130515Y-9311508D02*
X9149563Y-9301984D01*
X9340039Y-9301984D02*
X9359086Y-9301984D01*
X9359086Y-9301984D02*
X9378134Y-9311508D01*
X9378134Y-9311508D02*
X9387658Y-9321031D01*
X9387658Y-9321031D02*
X9397182Y-9340079D01*
X9397182Y-9340079D02*
X9406705Y-9378174D01*
X9406705Y-9378174D02*
X9406705Y-9425793D01*
X9406705Y-9425793D02*
X9397182Y-9463889D01*
X9397182Y-9463889D02*
X9387658Y-9482936D01*
X9387658Y-9482936D02*
X9378134Y-9492460D01*
X9378134Y-9492460D02*
X9359086Y-9501984D01*
X9359086Y-9501984D02*
X9340039Y-9501984D01*
X9340039Y-9501984D02*
X9320991Y-9492460D01*
X9320991Y-9492460D02*
X9311467Y-9482936D01*
X9311467Y-9482936D02*
X9301944Y-9463889D01*
X9301944Y-9463889D02*
X9292420Y-9425793D01*
X9292420Y-9425793D02*
X9292420Y-9378174D01*
X9292420Y-9378174D02*
X9301944Y-9340079D01*
X9301944Y-9340079D02*
X9311467Y-9321031D01*
X9311467Y-9321031D02*
X9320991Y-9311508D01*
X9320991Y-9311508D02*
X9340039Y-9301984D01*
X9492420Y-9501984D02*
X9492420Y-9368650D01*
X9492420Y-9387698D02*
X9501944Y-9378174D01*
X9501944Y-9378174D02*
X9520991Y-9368650D01*
X9520991Y-9368650D02*
X9549563Y-9368650D01*
X9549563Y-9368650D02*
X9568610Y-9378174D01*
X9568610Y-9378174D02*
X9578134Y-9397222D01*
X9578134Y-9397222D02*
X9578134Y-9501984D01*
X9578134Y-9397222D02*
X9587658Y-9378174D01*
X9587658Y-9378174D02*
X9606705Y-9368650D01*
X9606705Y-9368650D02*
X9635277Y-9368650D01*
X9635277Y-9368650D02*
X9654325Y-9378174D01*
X9654325Y-9378174D02*
X9663848Y-9397222D01*
X9663848Y-9397222D02*
X9663848Y-9501984D01*
X9759086Y-9501984D02*
X9759086Y-9368650D01*
X9759086Y-9387698D02*
X9768610Y-9378174D01*
X9768610Y-9378174D02*
X9787658Y-9368650D01*
X9787658Y-9368650D02*
X9816229Y-9368650D01*
X9816229Y-9368650D02*
X9835277Y-9378174D01*
X9835277Y-9378174D02*
X9844801Y-9397222D01*
X9844801Y-9397222D02*
X9844801Y-9501984D01*
X9844801Y-9397222D02*
X9854325Y-9378174D01*
X9854325Y-9378174D02*
X9873372Y-9368650D01*
X9873372Y-9368650D02*
X9901944Y-9368650D01*
X9901944Y-9368650D02*
X9920991Y-9378174D01*
X9920991Y-9378174D02*
X9930515Y-9397222D01*
X9930515Y-9397222D02*
X9930515Y-9501984D01*
X10320991Y-9292460D02*
X10149563Y-9549603D01*
X10578134Y-9301984D02*
X10597182Y-9301984D01*
X10597182Y-9301984D02*
X10616229Y-9311508D01*
X10616229Y-9311508D02*
X10625753Y-9321031D01*
X10625753Y-9321031D02*
X10635277Y-9340079D01*
X10635277Y-9340079D02*
X10644801Y-9378174D01*
X10644801Y-9378174D02*
X10644801Y-9425793D01*
X10644801Y-9425793D02*
X10635277Y-9463889D01*
X10635277Y-9463889D02*
X10625753Y-9482936D01*
X10625753Y-9482936D02*
X10616229Y-9492460D01*
X10616229Y-9492460D02*
X10597182Y-9501984D01*
X10597182Y-9501984D02*
X10578134Y-9501984D01*
X10578134Y-9501984D02*
X10559087Y-9492460D01*
X10559087Y-9492460D02*
X10549563Y-9482936D01*
X10549563Y-9482936D02*
X10540039Y-9463889D01*
X10540039Y-9463889D02*
X10530515Y-9425793D01*
X10530515Y-9425793D02*
X10530515Y-9378174D01*
X10530515Y-9378174D02*
X10540039Y-9340079D01*
X10540039Y-9340079D02*
X10549563Y-9321031D01*
X10549563Y-9321031D02*
X10559087Y-9311508D01*
X10559087Y-9311508D02*
X10578134Y-9301984D01*
X10730515Y-9482936D02*
X10740039Y-9492460D01*
X10740039Y-9492460D02*
X10730515Y-9501984D01*
X10730515Y-9501984D02*
X10720991Y-9492460D01*
X10720991Y-9492460D02*
X10730515Y-9482936D01*
X10730515Y-9482936D02*
X10730515Y-9501984D01*
X10863848Y-9301984D02*
X10882896Y-9301984D01*
X10882896Y-9301984D02*
X10901944Y-9311508D01*
X10901944Y-9311508D02*
X10911468Y-9321031D01*
X10911468Y-9321031D02*
X10920991Y-9340079D01*
X10920991Y-9340079D02*
X10930515Y-9378174D01*
X10930515Y-9378174D02*
X10930515Y-9425793D01*
X10930515Y-9425793D02*
X10920991Y-9463889D01*
X10920991Y-9463889D02*
X10911468Y-9482936D01*
X10911468Y-9482936D02*
X10901944Y-9492460D01*
X10901944Y-9492460D02*
X10882896Y-9501984D01*
X10882896Y-9501984D02*
X10863848Y-9501984D01*
X10863848Y-9501984D02*
X10844801Y-9492460D01*
X10844801Y-9492460D02*
X10835277Y-9482936D01*
X10835277Y-9482936D02*
X10825753Y-9463889D01*
X10825753Y-9463889D02*
X10816229Y-9425793D01*
X10816229Y-9425793D02*
X10816229Y-9378174D01*
X10816229Y-9378174D02*
X10825753Y-9340079D01*
X10825753Y-9340079D02*
X10835277Y-9321031D01*
X10835277Y-9321031D02*
X10844801Y-9311508D01*
X10844801Y-9311508D02*
X10863848Y-9301984D01*
X11120991Y-9501984D02*
X11006706Y-9501984D01*
X11063848Y-9501984D02*
X11063848Y-9301984D01*
X11063848Y-9301984D02*
X11044801Y-9330555D01*
X11044801Y-9330555D02*
X11025753Y-9349603D01*
X11025753Y-9349603D02*
X11006706Y-9359127D01*
X11301944Y-9301984D02*
X11206706Y-9301984D01*
X11206706Y-9301984D02*
X11197182Y-9397222D01*
X11197182Y-9397222D02*
X11206706Y-9387698D01*
X11206706Y-9387698D02*
X11225753Y-9378174D01*
X11225753Y-9378174D02*
X11273372Y-9378174D01*
X11273372Y-9378174D02*
X11292420Y-9387698D01*
X11292420Y-9387698D02*
X11301944Y-9397222D01*
X11301944Y-9397222D02*
X11311467Y-9416270D01*
X11311467Y-9416270D02*
X11311467Y-9463889D01*
X11311467Y-9463889D02*
X11301944Y-9482936D01*
X11301944Y-9482936D02*
X11292420Y-9492460D01*
X11292420Y-9492460D02*
X11273372Y-9501984D01*
X11273372Y-9501984D02*
X11225753Y-9501984D01*
X11225753Y-9501984D02*
X11206706Y-9492460D01*
X11206706Y-9492460D02*
X11197182Y-9482936D01*
X11378134Y-9301984D02*
X11511467Y-9301984D01*
X11511467Y-9301984D02*
X11425753Y-9501984D01*
X11578134Y-9301984D02*
X11578134Y-9340079D01*
X11654325Y-9301984D02*
X11654325Y-9340079D01*
X11949563Y-9578174D02*
X11940039Y-9568650D01*
X11940039Y-9568650D02*
X11920991Y-9540079D01*
X11920991Y-9540079D02*
X11911468Y-9521031D01*
X11911468Y-9521031D02*
X11901944Y-9492460D01*
X11901944Y-9492460D02*
X11892420Y-9444841D01*
X11892420Y-9444841D02*
X11892420Y-9406746D01*
X11892420Y-9406746D02*
X11901944Y-9359127D01*
X11901944Y-9359127D02*
X11911468Y-9330555D01*
X11911468Y-9330555D02*
X11920991Y-9311508D01*
X11920991Y-9311508D02*
X11940039Y-9282936D01*
X11940039Y-9282936D02*
X11949563Y-9273412D01*
X12035277Y-9501984D02*
X12073372Y-9501984D01*
X12073372Y-9501984D02*
X12092420Y-9492460D01*
X12092420Y-9492460D02*
X12101944Y-9482936D01*
X12101944Y-9482936D02*
X12120991Y-9454365D01*
X12120991Y-9454365D02*
X12130515Y-9416270D01*
X12130515Y-9416270D02*
X12130515Y-9340079D01*
X12130515Y-9340079D02*
X12120991Y-9321031D01*
X12120991Y-9321031D02*
X12111468Y-9311508D01*
X12111468Y-9311508D02*
X12092420Y-9301984D01*
X12092420Y-9301984D02*
X12054325Y-9301984D01*
X12054325Y-9301984D02*
X12035277Y-9311508D01*
X12035277Y-9311508D02*
X12025753Y-9321031D01*
X12025753Y-9321031D02*
X12016229Y-9340079D01*
X12016229Y-9340079D02*
X12016229Y-9387698D01*
X12016229Y-9387698D02*
X12025753Y-9406746D01*
X12025753Y-9406746D02*
X12035277Y-9416270D01*
X12035277Y-9416270D02*
X12054325Y-9425793D01*
X12054325Y-9425793D02*
X12092420Y-9425793D01*
X12092420Y-9425793D02*
X12111468Y-9416270D01*
X12111468Y-9416270D02*
X12120991Y-9406746D01*
X12120991Y-9406746D02*
X12130515Y-9387698D01*
X12244801Y-9387698D02*
X12225753Y-9378174D01*
X12225753Y-9378174D02*
X12216229Y-9368650D01*
X12216229Y-9368650D02*
X12206706Y-9349603D01*
X12206706Y-9349603D02*
X12206706Y-9340079D01*
X12206706Y-9340079D02*
X12216229Y-9321031D01*
X12216229Y-9321031D02*
X12225753Y-9311508D01*
X12225753Y-9311508D02*
X12244801Y-9301984D01*
X12244801Y-9301984D02*
X12282896Y-9301984D01*
X12282896Y-9301984D02*
X12301944Y-9311508D01*
X12301944Y-9311508D02*
X12311468Y-9321031D01*
X12311468Y-9321031D02*
X12320991Y-9340079D01*
X12320991Y-9340079D02*
X12320991Y-9349603D01*
X12320991Y-9349603D02*
X12311468Y-9368650D01*
X12311468Y-9368650D02*
X12301944Y-9378174D01*
X12301944Y-9378174D02*
X12282896Y-9387698D01*
X12282896Y-9387698D02*
X12244801Y-9387698D01*
X12244801Y-9387698D02*
X12225753Y-9397222D01*
X12225753Y-9397222D02*
X12216229Y-9406746D01*
X12216229Y-9406746D02*
X12206706Y-9425793D01*
X12206706Y-9425793D02*
X12206706Y-9463889D01*
X12206706Y-9463889D02*
X12216229Y-9482936D01*
X12216229Y-9482936D02*
X12225753Y-9492460D01*
X12225753Y-9492460D02*
X12244801Y-9501984D01*
X12244801Y-9501984D02*
X12282896Y-9501984D01*
X12282896Y-9501984D02*
X12301944Y-9492460D01*
X12301944Y-9492460D02*
X12311468Y-9482936D01*
X12311468Y-9482936D02*
X12320991Y-9463889D01*
X12320991Y-9463889D02*
X12320991Y-9425793D01*
X12320991Y-9425793D02*
X12311468Y-9406746D01*
X12311468Y-9406746D02*
X12301944Y-9397222D01*
X12301944Y-9397222D02*
X12282896Y-9387698D01*
X12559087Y-9501984D02*
X12559087Y-9301984D01*
X12644801Y-9501984D02*
X12644801Y-9397222D01*
X12644801Y-9397222D02*
X12635277Y-9378174D01*
X12635277Y-9378174D02*
X12616230Y-9368650D01*
X12616230Y-9368650D02*
X12587658Y-9368650D01*
X12587658Y-9368650D02*
X12568610Y-9378174D01*
X12568610Y-9378174D02*
X12559087Y-9387698D01*
X12768610Y-9501984D02*
X12749563Y-9492460D01*
X12749563Y-9492460D02*
X12740039Y-9482936D01*
X12740039Y-9482936D02*
X12730515Y-9463889D01*
X12730515Y-9463889D02*
X12730515Y-9406746D01*
X12730515Y-9406746D02*
X12740039Y-9387698D01*
X12740039Y-9387698D02*
X12749563Y-9378174D01*
X12749563Y-9378174D02*
X12768610Y-9368650D01*
X12768610Y-9368650D02*
X12797182Y-9368650D01*
X12797182Y-9368650D02*
X12816230Y-9378174D01*
X12816230Y-9378174D02*
X12825753Y-9387698D01*
X12825753Y-9387698D02*
X12835277Y-9406746D01*
X12835277Y-9406746D02*
X12835277Y-9463889D01*
X12835277Y-9463889D02*
X12825753Y-9482936D01*
X12825753Y-9482936D02*
X12816230Y-9492460D01*
X12816230Y-9492460D02*
X12797182Y-9501984D01*
X12797182Y-9501984D02*
X12768610Y-9501984D01*
X12949563Y-9501984D02*
X12930515Y-9492460D01*
X12930515Y-9492460D02*
X12920991Y-9473412D01*
X12920991Y-9473412D02*
X12920991Y-9301984D01*
X13101944Y-9492460D02*
X13082896Y-9501984D01*
X13082896Y-9501984D02*
X13044801Y-9501984D01*
X13044801Y-9501984D02*
X13025753Y-9492460D01*
X13025753Y-9492460D02*
X13016230Y-9473412D01*
X13016230Y-9473412D02*
X13016230Y-9397222D01*
X13016230Y-9397222D02*
X13025753Y-9378174D01*
X13025753Y-9378174D02*
X13044801Y-9368650D01*
X13044801Y-9368650D02*
X13082896Y-9368650D01*
X13082896Y-9368650D02*
X13101944Y-9378174D01*
X13101944Y-9378174D02*
X13111468Y-9397222D01*
X13111468Y-9397222D02*
X13111468Y-9416270D01*
X13111468Y-9416270D02*
X13016230Y-9435317D01*
X13187658Y-9492460D02*
X13206706Y-9501984D01*
X13206706Y-9501984D02*
X13244801Y-9501984D01*
X13244801Y-9501984D02*
X13263849Y-9492460D01*
X13263849Y-9492460D02*
X13273372Y-9473412D01*
X13273372Y-9473412D02*
X13273372Y-9463889D01*
X13273372Y-9463889D02*
X13263849Y-9444841D01*
X13263849Y-9444841D02*
X13244801Y-9435317D01*
X13244801Y-9435317D02*
X13216230Y-9435317D01*
X13216230Y-9435317D02*
X13197182Y-9425793D01*
X13197182Y-9425793D02*
X13187658Y-9406746D01*
X13187658Y-9406746D02*
X13187658Y-9397222D01*
X13187658Y-9397222D02*
X13197182Y-9378174D01*
X13197182Y-9378174D02*
X13216230Y-9368650D01*
X13216230Y-9368650D02*
X13244801Y-9368650D01*
X13244801Y-9368650D02*
X13263849Y-9378174D01*
X13340039Y-9578174D02*
X13349563Y-9568650D01*
X13349563Y-9568650D02*
X13368611Y-9540079D01*
X13368611Y-9540079D02*
X13378134Y-9521031D01*
X13378134Y-9521031D02*
X13387658Y-9492460D01*
X13387658Y-9492460D02*
X13397182Y-9444841D01*
X13397182Y-9444841D02*
X13397182Y-9406746D01*
X13397182Y-9406746D02*
X13387658Y-9359127D01*
X13387658Y-9359127D02*
X13378134Y-9330555D01*
X13378134Y-9330555D02*
X13368611Y-9311508D01*
X13368611Y-9311508D02*
X13349563Y-9282936D01*
X13349563Y-9282936D02*
X13340039Y-9273412D01*
D13*
X8374500Y-9674500D02*
G75*
G03*
X8374500Y-9674500I-27500J0D01*
G01*
D11*
X8673372Y-9565984D02*
X8692420Y-9565984D01*
X8692420Y-9565984D02*
X8711467Y-9575508D01*
X8711467Y-9575508D02*
X8720991Y-9585031D01*
X8720991Y-9585031D02*
X8730515Y-9604079D01*
X8730515Y-9604079D02*
X8740039Y-9642174D01*
X8740039Y-9642174D02*
X8740039Y-9689793D01*
X8740039Y-9689793D02*
X8730515Y-9727889D01*
X8730515Y-9727889D02*
X8720991Y-9746936D01*
X8720991Y-9746936D02*
X8711467Y-9756460D01*
X8711467Y-9756460D02*
X8692420Y-9765984D01*
X8692420Y-9765984D02*
X8673372Y-9765984D01*
X8673372Y-9765984D02*
X8654324Y-9756460D01*
X8654324Y-9756460D02*
X8644801Y-9746936D01*
X8644801Y-9746936D02*
X8635277Y-9727889D01*
X8635277Y-9727889D02*
X8625753Y-9689793D01*
X8625753Y-9689793D02*
X8625753Y-9642174D01*
X8625753Y-9642174D02*
X8635277Y-9604079D01*
X8635277Y-9604079D02*
X8644801Y-9585031D01*
X8644801Y-9585031D02*
X8654324Y-9575508D01*
X8654324Y-9575508D02*
X8673372Y-9565984D01*
X8825753Y-9746936D02*
X8835277Y-9756460D01*
X8835277Y-9756460D02*
X8825753Y-9765984D01*
X8825753Y-9765984D02*
X8816229Y-9756460D01*
X8816229Y-9756460D02*
X8825753Y-9746936D01*
X8825753Y-9746936D02*
X8825753Y-9765984D01*
X9016229Y-9565984D02*
X8920991Y-9565984D01*
X8920991Y-9565984D02*
X8911467Y-9661222D01*
X8911467Y-9661222D02*
X8920991Y-9651698D01*
X8920991Y-9651698D02*
X8940039Y-9642174D01*
X8940039Y-9642174D02*
X8987658Y-9642174D01*
X8987658Y-9642174D02*
X9006705Y-9651698D01*
X9006705Y-9651698D02*
X9016229Y-9661222D01*
X9016229Y-9661222D02*
X9025753Y-9680270D01*
X9025753Y-9680270D02*
X9025753Y-9727889D01*
X9025753Y-9727889D02*
X9016229Y-9746936D01*
X9016229Y-9746936D02*
X9006705Y-9756460D01*
X9006705Y-9756460D02*
X8987658Y-9765984D01*
X8987658Y-9765984D02*
X8940039Y-9765984D01*
X8940039Y-9765984D02*
X8920991Y-9756460D01*
X8920991Y-9756460D02*
X8911467Y-9746936D01*
X9206705Y-9565984D02*
X9111467Y-9565984D01*
X9111467Y-9565984D02*
X9101944Y-9661222D01*
X9101944Y-9661222D02*
X9111467Y-9651698D01*
X9111467Y-9651698D02*
X9130515Y-9642174D01*
X9130515Y-9642174D02*
X9178134Y-9642174D01*
X9178134Y-9642174D02*
X9197182Y-9651698D01*
X9197182Y-9651698D02*
X9206705Y-9661222D01*
X9206705Y-9661222D02*
X9216229Y-9680270D01*
X9216229Y-9680270D02*
X9216229Y-9727889D01*
X9216229Y-9727889D02*
X9206705Y-9746936D01*
X9206705Y-9746936D02*
X9197182Y-9756460D01*
X9197182Y-9756460D02*
X9178134Y-9765984D01*
X9178134Y-9765984D02*
X9130515Y-9765984D01*
X9130515Y-9765984D02*
X9111467Y-9756460D01*
X9111467Y-9756460D02*
X9101944Y-9746936D01*
X9340039Y-9565984D02*
X9359086Y-9565984D01*
X9359086Y-9565984D02*
X9378134Y-9575508D01*
X9378134Y-9575508D02*
X9387658Y-9585031D01*
X9387658Y-9585031D02*
X9397182Y-9604079D01*
X9397182Y-9604079D02*
X9406705Y-9642174D01*
X9406705Y-9642174D02*
X9406705Y-9689793D01*
X9406705Y-9689793D02*
X9397182Y-9727889D01*
X9397182Y-9727889D02*
X9387658Y-9746936D01*
X9387658Y-9746936D02*
X9378134Y-9756460D01*
X9378134Y-9756460D02*
X9359086Y-9765984D01*
X9359086Y-9765984D02*
X9340039Y-9765984D01*
X9340039Y-9765984D02*
X9320991Y-9756460D01*
X9320991Y-9756460D02*
X9311467Y-9746936D01*
X9311467Y-9746936D02*
X9301944Y-9727889D01*
X9301944Y-9727889D02*
X9292420Y-9689793D01*
X9292420Y-9689793D02*
X9292420Y-9642174D01*
X9292420Y-9642174D02*
X9301944Y-9604079D01*
X9301944Y-9604079D02*
X9311467Y-9585031D01*
X9311467Y-9585031D02*
X9320991Y-9575508D01*
X9320991Y-9575508D02*
X9340039Y-9565984D01*
X9492420Y-9765984D02*
X9492420Y-9632650D01*
X9492420Y-9651698D02*
X9501944Y-9642174D01*
X9501944Y-9642174D02*
X9520991Y-9632650D01*
X9520991Y-9632650D02*
X9549563Y-9632650D01*
X9549563Y-9632650D02*
X9568610Y-9642174D01*
X9568610Y-9642174D02*
X9578134Y-9661222D01*
X9578134Y-9661222D02*
X9578134Y-9765984D01*
X9578134Y-9661222D02*
X9587658Y-9642174D01*
X9587658Y-9642174D02*
X9606705Y-9632650D01*
X9606705Y-9632650D02*
X9635277Y-9632650D01*
X9635277Y-9632650D02*
X9654325Y-9642174D01*
X9654325Y-9642174D02*
X9663848Y-9661222D01*
X9663848Y-9661222D02*
X9663848Y-9765984D01*
X9759086Y-9765984D02*
X9759086Y-9632650D01*
X9759086Y-9651698D02*
X9768610Y-9642174D01*
X9768610Y-9642174D02*
X9787658Y-9632650D01*
X9787658Y-9632650D02*
X9816229Y-9632650D01*
X9816229Y-9632650D02*
X9835277Y-9642174D01*
X9835277Y-9642174D02*
X9844801Y-9661222D01*
X9844801Y-9661222D02*
X9844801Y-9765984D01*
X9844801Y-9661222D02*
X9854325Y-9642174D01*
X9854325Y-9642174D02*
X9873372Y-9632650D01*
X9873372Y-9632650D02*
X9901944Y-9632650D01*
X9901944Y-9632650D02*
X9920991Y-9642174D01*
X9920991Y-9642174D02*
X9930515Y-9661222D01*
X9930515Y-9661222D02*
X9930515Y-9765984D01*
X10320991Y-9556460D02*
X10149563Y-9813603D01*
X10578134Y-9565984D02*
X10597182Y-9565984D01*
X10597182Y-9565984D02*
X10616229Y-9575508D01*
X10616229Y-9575508D02*
X10625753Y-9585031D01*
X10625753Y-9585031D02*
X10635277Y-9604079D01*
X10635277Y-9604079D02*
X10644801Y-9642174D01*
X10644801Y-9642174D02*
X10644801Y-9689793D01*
X10644801Y-9689793D02*
X10635277Y-9727889D01*
X10635277Y-9727889D02*
X10625753Y-9746936D01*
X10625753Y-9746936D02*
X10616229Y-9756460D01*
X10616229Y-9756460D02*
X10597182Y-9765984D01*
X10597182Y-9765984D02*
X10578134Y-9765984D01*
X10578134Y-9765984D02*
X10559087Y-9756460D01*
X10559087Y-9756460D02*
X10549563Y-9746936D01*
X10549563Y-9746936D02*
X10540039Y-9727889D01*
X10540039Y-9727889D02*
X10530515Y-9689793D01*
X10530515Y-9689793D02*
X10530515Y-9642174D01*
X10530515Y-9642174D02*
X10540039Y-9604079D01*
X10540039Y-9604079D02*
X10549563Y-9585031D01*
X10549563Y-9585031D02*
X10559087Y-9575508D01*
X10559087Y-9575508D02*
X10578134Y-9565984D01*
X10730515Y-9746936D02*
X10740039Y-9756460D01*
X10740039Y-9756460D02*
X10730515Y-9765984D01*
X10730515Y-9765984D02*
X10720991Y-9756460D01*
X10720991Y-9756460D02*
X10730515Y-9746936D01*
X10730515Y-9746936D02*
X10730515Y-9765984D01*
X10863848Y-9565984D02*
X10882896Y-9565984D01*
X10882896Y-9565984D02*
X10901944Y-9575508D01*
X10901944Y-9575508D02*
X10911468Y-9585031D01*
X10911468Y-9585031D02*
X10920991Y-9604079D01*
X10920991Y-9604079D02*
X10930515Y-9642174D01*
X10930515Y-9642174D02*
X10930515Y-9689793D01*
X10930515Y-9689793D02*
X10920991Y-9727889D01*
X10920991Y-9727889D02*
X10911468Y-9746936D01*
X10911468Y-9746936D02*
X10901944Y-9756460D01*
X10901944Y-9756460D02*
X10882896Y-9765984D01*
X10882896Y-9765984D02*
X10863848Y-9765984D01*
X10863848Y-9765984D02*
X10844801Y-9756460D01*
X10844801Y-9756460D02*
X10835277Y-9746936D01*
X10835277Y-9746936D02*
X10825753Y-9727889D01*
X10825753Y-9727889D02*
X10816229Y-9689793D01*
X10816229Y-9689793D02*
X10816229Y-9642174D01*
X10816229Y-9642174D02*
X10825753Y-9604079D01*
X10825753Y-9604079D02*
X10835277Y-9585031D01*
X10835277Y-9585031D02*
X10844801Y-9575508D01*
X10844801Y-9575508D02*
X10863848Y-9565984D01*
X11006706Y-9585031D02*
X11016229Y-9575508D01*
X11016229Y-9575508D02*
X11035277Y-9565984D01*
X11035277Y-9565984D02*
X11082896Y-9565984D01*
X11082896Y-9565984D02*
X11101944Y-9575508D01*
X11101944Y-9575508D02*
X11111468Y-9585031D01*
X11111468Y-9585031D02*
X11120991Y-9604079D01*
X11120991Y-9604079D02*
X11120991Y-9623127D01*
X11120991Y-9623127D02*
X11111468Y-9651698D01*
X11111468Y-9651698D02*
X10997182Y-9765984D01*
X10997182Y-9765984D02*
X11120991Y-9765984D01*
X11311467Y-9765984D02*
X11197182Y-9765984D01*
X11254325Y-9765984D02*
X11254325Y-9565984D01*
X11254325Y-9565984D02*
X11235277Y-9594555D01*
X11235277Y-9594555D02*
X11216229Y-9613603D01*
X11216229Y-9613603D02*
X11197182Y-9623127D01*
X11378134Y-9565984D02*
X11511467Y-9565984D01*
X11511467Y-9565984D02*
X11425753Y-9765984D01*
X11578134Y-9565984D02*
X11578134Y-9604079D01*
X11654325Y-9565984D02*
X11654325Y-9604079D01*
X11949563Y-9842174D02*
X11940039Y-9832650D01*
X11940039Y-9832650D02*
X11920991Y-9804079D01*
X11920991Y-9804079D02*
X11911468Y-9785031D01*
X11911468Y-9785031D02*
X11901944Y-9756460D01*
X11901944Y-9756460D02*
X11892420Y-9708841D01*
X11892420Y-9708841D02*
X11892420Y-9670746D01*
X11892420Y-9670746D02*
X11901944Y-9623127D01*
X11901944Y-9623127D02*
X11911468Y-9594555D01*
X11911468Y-9594555D02*
X11920991Y-9575508D01*
X11920991Y-9575508D02*
X11940039Y-9546936D01*
X11940039Y-9546936D02*
X11949563Y-9537412D01*
X12063848Y-9565984D02*
X12082896Y-9565984D01*
X12082896Y-9565984D02*
X12101944Y-9575508D01*
X12101944Y-9575508D02*
X12111468Y-9585031D01*
X12111468Y-9585031D02*
X12120991Y-9604079D01*
X12120991Y-9604079D02*
X12130515Y-9642174D01*
X12130515Y-9642174D02*
X12130515Y-9689793D01*
X12130515Y-9689793D02*
X12120991Y-9727889D01*
X12120991Y-9727889D02*
X12111468Y-9746936D01*
X12111468Y-9746936D02*
X12101944Y-9756460D01*
X12101944Y-9756460D02*
X12082896Y-9765984D01*
X12082896Y-9765984D02*
X12063848Y-9765984D01*
X12063848Y-9765984D02*
X12044801Y-9756460D01*
X12044801Y-9756460D02*
X12035277Y-9746936D01*
X12035277Y-9746936D02*
X12025753Y-9727889D01*
X12025753Y-9727889D02*
X12016229Y-9689793D01*
X12016229Y-9689793D02*
X12016229Y-9642174D01*
X12016229Y-9642174D02*
X12025753Y-9604079D01*
X12025753Y-9604079D02*
X12035277Y-9585031D01*
X12035277Y-9585031D02*
X12044801Y-9575508D01*
X12044801Y-9575508D02*
X12063848Y-9565984D01*
X12368610Y-9765984D02*
X12368610Y-9565984D01*
X12454325Y-9765984D02*
X12454325Y-9661222D01*
X12454325Y-9661222D02*
X12444801Y-9642174D01*
X12444801Y-9642174D02*
X12425753Y-9632650D01*
X12425753Y-9632650D02*
X12397182Y-9632650D01*
X12397182Y-9632650D02*
X12378134Y-9642174D01*
X12378134Y-9642174D02*
X12368610Y-9651698D01*
X12578134Y-9765984D02*
X12559087Y-9756460D01*
X12559087Y-9756460D02*
X12549563Y-9746936D01*
X12549563Y-9746936D02*
X12540039Y-9727889D01*
X12540039Y-9727889D02*
X12540039Y-9670746D01*
X12540039Y-9670746D02*
X12549563Y-9651698D01*
X12549563Y-9651698D02*
X12559087Y-9642174D01*
X12559087Y-9642174D02*
X12578134Y-9632650D01*
X12578134Y-9632650D02*
X12606706Y-9632650D01*
X12606706Y-9632650D02*
X12625753Y-9642174D01*
X12625753Y-9642174D02*
X12635277Y-9651698D01*
X12635277Y-9651698D02*
X12644801Y-9670746D01*
X12644801Y-9670746D02*
X12644801Y-9727889D01*
X12644801Y-9727889D02*
X12635277Y-9746936D01*
X12635277Y-9746936D02*
X12625753Y-9756460D01*
X12625753Y-9756460D02*
X12606706Y-9765984D01*
X12606706Y-9765984D02*
X12578134Y-9765984D01*
X12759087Y-9765984D02*
X12740039Y-9756460D01*
X12740039Y-9756460D02*
X12730515Y-9737412D01*
X12730515Y-9737412D02*
X12730515Y-9565984D01*
X12911468Y-9756460D02*
X12892420Y-9765984D01*
X12892420Y-9765984D02*
X12854325Y-9765984D01*
X12854325Y-9765984D02*
X12835277Y-9756460D01*
X12835277Y-9756460D02*
X12825753Y-9737412D01*
X12825753Y-9737412D02*
X12825753Y-9661222D01*
X12825753Y-9661222D02*
X12835277Y-9642174D01*
X12835277Y-9642174D02*
X12854325Y-9632650D01*
X12854325Y-9632650D02*
X12892420Y-9632650D01*
X12892420Y-9632650D02*
X12911468Y-9642174D01*
X12911468Y-9642174D02*
X12920991Y-9661222D01*
X12920991Y-9661222D02*
X12920991Y-9680270D01*
X12920991Y-9680270D02*
X12825753Y-9699317D01*
X12997182Y-9756460D02*
X13016230Y-9765984D01*
X13016230Y-9765984D02*
X13054325Y-9765984D01*
X13054325Y-9765984D02*
X13073372Y-9756460D01*
X13073372Y-9756460D02*
X13082896Y-9737412D01*
X13082896Y-9737412D02*
X13082896Y-9727889D01*
X13082896Y-9727889D02*
X13073372Y-9708841D01*
X13073372Y-9708841D02*
X13054325Y-9699317D01*
X13054325Y-9699317D02*
X13025753Y-9699317D01*
X13025753Y-9699317D02*
X13006706Y-9689793D01*
X13006706Y-9689793D02*
X12997182Y-9670746D01*
X12997182Y-9670746D02*
X12997182Y-9661222D01*
X12997182Y-9661222D02*
X13006706Y-9642174D01*
X13006706Y-9642174D02*
X13025753Y-9632650D01*
X13025753Y-9632650D02*
X13054325Y-9632650D01*
X13054325Y-9632650D02*
X13073372Y-9642174D01*
X13320992Y-9689793D02*
X13473373Y-9689793D01*
X13397182Y-9765984D02*
X13397182Y-9613603D01*
X13711468Y-9585031D02*
X13720992Y-9575508D01*
X13720992Y-9575508D02*
X13740039Y-9565984D01*
X13740039Y-9565984D02*
X13787658Y-9565984D01*
X13787658Y-9565984D02*
X13806706Y-9575508D01*
X13806706Y-9575508D02*
X13816230Y-9585031D01*
X13816230Y-9585031D02*
X13825753Y-9604079D01*
X13825753Y-9604079D02*
X13825753Y-9623127D01*
X13825753Y-9623127D02*
X13816230Y-9651698D01*
X13816230Y-9651698D02*
X13701944Y-9765984D01*
X13701944Y-9765984D02*
X13825753Y-9765984D01*
X14054325Y-9756460D02*
X14073373Y-9765984D01*
X14073373Y-9765984D02*
X14111468Y-9765984D01*
X14111468Y-9765984D02*
X14130515Y-9756460D01*
X14130515Y-9756460D02*
X14140039Y-9737412D01*
X14140039Y-9737412D02*
X14140039Y-9727889D01*
X14140039Y-9727889D02*
X14130515Y-9708841D01*
X14130515Y-9708841D02*
X14111468Y-9699317D01*
X14111468Y-9699317D02*
X14082896Y-9699317D01*
X14082896Y-9699317D02*
X14063849Y-9689793D01*
X14063849Y-9689793D02*
X14054325Y-9670746D01*
X14054325Y-9670746D02*
X14054325Y-9661222D01*
X14054325Y-9661222D02*
X14063849Y-9642174D01*
X14063849Y-9642174D02*
X14082896Y-9632650D01*
X14082896Y-9632650D02*
X14111468Y-9632650D01*
X14111468Y-9632650D02*
X14130515Y-9642174D01*
X14254325Y-9765984D02*
X14235277Y-9756460D01*
X14235277Y-9756460D02*
X14225754Y-9737412D01*
X14225754Y-9737412D02*
X14225754Y-9565984D01*
X14359087Y-9765984D02*
X14340039Y-9756460D01*
X14340039Y-9756460D02*
X14330515Y-9746936D01*
X14330515Y-9746936D02*
X14320992Y-9727889D01*
X14320992Y-9727889D02*
X14320992Y-9670746D01*
X14320992Y-9670746D02*
X14330515Y-9651698D01*
X14330515Y-9651698D02*
X14340039Y-9642174D01*
X14340039Y-9642174D02*
X14359087Y-9632650D01*
X14359087Y-9632650D02*
X14387658Y-9632650D01*
X14387658Y-9632650D02*
X14406706Y-9642174D01*
X14406706Y-9642174D02*
X14416230Y-9651698D01*
X14416230Y-9651698D02*
X14425754Y-9670746D01*
X14425754Y-9670746D02*
X14425754Y-9727889D01*
X14425754Y-9727889D02*
X14416230Y-9746936D01*
X14416230Y-9746936D02*
X14406706Y-9756460D01*
X14406706Y-9756460D02*
X14387658Y-9765984D01*
X14387658Y-9765984D02*
X14359087Y-9765984D01*
X14482896Y-9632650D02*
X14559087Y-9632650D01*
X14511468Y-9565984D02*
X14511468Y-9737412D01*
X14511468Y-9737412D02*
X14520992Y-9756460D01*
X14520992Y-9756460D02*
X14540039Y-9765984D01*
X14540039Y-9765984D02*
X14559087Y-9765984D01*
X14616230Y-9756460D02*
X14635277Y-9765984D01*
X14635277Y-9765984D02*
X14673373Y-9765984D01*
X14673373Y-9765984D02*
X14692420Y-9756460D01*
X14692420Y-9756460D02*
X14701944Y-9737412D01*
X14701944Y-9737412D02*
X14701944Y-9727889D01*
X14701944Y-9727889D02*
X14692420Y-9708841D01*
X14692420Y-9708841D02*
X14673373Y-9699317D01*
X14673373Y-9699317D02*
X14644801Y-9699317D01*
X14644801Y-9699317D02*
X14625754Y-9689793D01*
X14625754Y-9689793D02*
X14616230Y-9670746D01*
X14616230Y-9670746D02*
X14616230Y-9661222D01*
X14616230Y-9661222D02*
X14625754Y-9642174D01*
X14625754Y-9642174D02*
X14644801Y-9632650D01*
X14644801Y-9632650D02*
X14673373Y-9632650D01*
X14673373Y-9632650D02*
X14692420Y-9642174D01*
X14768611Y-9842174D02*
X14778135Y-9832650D01*
X14778135Y-9832650D02*
X14797182Y-9804079D01*
X14797182Y-9804079D02*
X14806706Y-9785031D01*
X14806706Y-9785031D02*
X14816230Y-9756460D01*
X14816230Y-9756460D02*
X14825754Y-9708841D01*
X14825754Y-9708841D02*
X14825754Y-9670746D01*
X14825754Y-9670746D02*
X14816230Y-9623127D01*
X14816230Y-9623127D02*
X14806706Y-9594555D01*
X14806706Y-9594555D02*
X14797182Y-9575508D01*
X14797182Y-9575508D02*
X14778135Y-9546936D01*
X14778135Y-9546936D02*
X14768611Y-9537412D01*
D14*
X8342000Y-9906000D02*
X8342000Y-9971000D01*
X8309500Y-9938500D02*
X8374500Y-9938500D01*
D11*
X8673372Y-9829984D02*
X8692420Y-9829984D01*
X8692420Y-9829984D02*
X8711467Y-9839508D01*
X8711467Y-9839508D02*
X8720991Y-9849031D01*
X8720991Y-9849031D02*
X8730515Y-9868079D01*
X8730515Y-9868079D02*
X8740039Y-9906174D01*
X8740039Y-9906174D02*
X8740039Y-9953793D01*
X8740039Y-9953793D02*
X8730515Y-9991889D01*
X8730515Y-9991889D02*
X8720991Y-10010936D01*
X8720991Y-10010936D02*
X8711467Y-10020460D01*
X8711467Y-10020460D02*
X8692420Y-10029984D01*
X8692420Y-10029984D02*
X8673372Y-10029984D01*
X8673372Y-10029984D02*
X8654324Y-10020460D01*
X8654324Y-10020460D02*
X8644801Y-10010936D01*
X8644801Y-10010936D02*
X8635277Y-9991889D01*
X8635277Y-9991889D02*
X8625753Y-9953793D01*
X8625753Y-9953793D02*
X8625753Y-9906174D01*
X8625753Y-9906174D02*
X8635277Y-9868079D01*
X8635277Y-9868079D02*
X8644801Y-9849031D01*
X8644801Y-9849031D02*
X8654324Y-9839508D01*
X8654324Y-9839508D02*
X8673372Y-9829984D01*
X8825753Y-10010936D02*
X8835277Y-10020460D01*
X8835277Y-10020460D02*
X8825753Y-10029984D01*
X8825753Y-10029984D02*
X8816229Y-10020460D01*
X8816229Y-10020460D02*
X8825753Y-10010936D01*
X8825753Y-10010936D02*
X8825753Y-10029984D01*
X9006705Y-9829984D02*
X8968610Y-9829984D01*
X8968610Y-9829984D02*
X8949563Y-9839508D01*
X8949563Y-9839508D02*
X8940039Y-9849031D01*
X8940039Y-9849031D02*
X8920991Y-9877603D01*
X8920991Y-9877603D02*
X8911467Y-9915698D01*
X8911467Y-9915698D02*
X8911467Y-9991889D01*
X8911467Y-9991889D02*
X8920991Y-10010936D01*
X8920991Y-10010936D02*
X8930515Y-10020460D01*
X8930515Y-10020460D02*
X8949563Y-10029984D01*
X8949563Y-10029984D02*
X8987658Y-10029984D01*
X8987658Y-10029984D02*
X9006705Y-10020460D01*
X9006705Y-10020460D02*
X9016229Y-10010936D01*
X9016229Y-10010936D02*
X9025753Y-9991889D01*
X9025753Y-9991889D02*
X9025753Y-9944270D01*
X9025753Y-9944270D02*
X9016229Y-9925222D01*
X9016229Y-9925222D02*
X9006705Y-9915698D01*
X9006705Y-9915698D02*
X8987658Y-9906174D01*
X8987658Y-9906174D02*
X8949563Y-9906174D01*
X8949563Y-9906174D02*
X8930515Y-9915698D01*
X8930515Y-9915698D02*
X8920991Y-9925222D01*
X8920991Y-9925222D02*
X8911467Y-9944270D01*
X9206705Y-9829984D02*
X9111467Y-9829984D01*
X9111467Y-9829984D02*
X9101944Y-9925222D01*
X9101944Y-9925222D02*
X9111467Y-9915698D01*
X9111467Y-9915698D02*
X9130515Y-9906174D01*
X9130515Y-9906174D02*
X9178134Y-9906174D01*
X9178134Y-9906174D02*
X9197182Y-9915698D01*
X9197182Y-9915698D02*
X9206705Y-9925222D01*
X9206705Y-9925222D02*
X9216229Y-9944270D01*
X9216229Y-9944270D02*
X9216229Y-9991889D01*
X9216229Y-9991889D02*
X9206705Y-10010936D01*
X9206705Y-10010936D02*
X9197182Y-10020460D01*
X9197182Y-10020460D02*
X9178134Y-10029984D01*
X9178134Y-10029984D02*
X9130515Y-10029984D01*
X9130515Y-10029984D02*
X9111467Y-10020460D01*
X9111467Y-10020460D02*
X9101944Y-10010936D01*
X9340039Y-9829984D02*
X9359086Y-9829984D01*
X9359086Y-9829984D02*
X9378134Y-9839508D01*
X9378134Y-9839508D02*
X9387658Y-9849031D01*
X9387658Y-9849031D02*
X9397182Y-9868079D01*
X9397182Y-9868079D02*
X9406705Y-9906174D01*
X9406705Y-9906174D02*
X9406705Y-9953793D01*
X9406705Y-9953793D02*
X9397182Y-9991889D01*
X9397182Y-9991889D02*
X9387658Y-10010936D01*
X9387658Y-10010936D02*
X9378134Y-10020460D01*
X9378134Y-10020460D02*
X9359086Y-10029984D01*
X9359086Y-10029984D02*
X9340039Y-10029984D01*
X9340039Y-10029984D02*
X9320991Y-10020460D01*
X9320991Y-10020460D02*
X9311467Y-10010936D01*
X9311467Y-10010936D02*
X9301944Y-9991889D01*
X9301944Y-9991889D02*
X9292420Y-9953793D01*
X9292420Y-9953793D02*
X9292420Y-9906174D01*
X9292420Y-9906174D02*
X9301944Y-9868079D01*
X9301944Y-9868079D02*
X9311467Y-9849031D01*
X9311467Y-9849031D02*
X9320991Y-9839508D01*
X9320991Y-9839508D02*
X9340039Y-9829984D01*
X9492420Y-10029984D02*
X9492420Y-9896650D01*
X9492420Y-9915698D02*
X9501944Y-9906174D01*
X9501944Y-9906174D02*
X9520991Y-9896650D01*
X9520991Y-9896650D02*
X9549563Y-9896650D01*
X9549563Y-9896650D02*
X9568610Y-9906174D01*
X9568610Y-9906174D02*
X9578134Y-9925222D01*
X9578134Y-9925222D02*
X9578134Y-10029984D01*
X9578134Y-9925222D02*
X9587658Y-9906174D01*
X9587658Y-9906174D02*
X9606705Y-9896650D01*
X9606705Y-9896650D02*
X9635277Y-9896650D01*
X9635277Y-9896650D02*
X9654325Y-9906174D01*
X9654325Y-9906174D02*
X9663848Y-9925222D01*
X9663848Y-9925222D02*
X9663848Y-10029984D01*
X9759086Y-10029984D02*
X9759086Y-9896650D01*
X9759086Y-9915698D02*
X9768610Y-9906174D01*
X9768610Y-9906174D02*
X9787658Y-9896650D01*
X9787658Y-9896650D02*
X9816229Y-9896650D01*
X9816229Y-9896650D02*
X9835277Y-9906174D01*
X9835277Y-9906174D02*
X9844801Y-9925222D01*
X9844801Y-9925222D02*
X9844801Y-10029984D01*
X9844801Y-9925222D02*
X9854325Y-9906174D01*
X9854325Y-9906174D02*
X9873372Y-9896650D01*
X9873372Y-9896650D02*
X9901944Y-9896650D01*
X9901944Y-9896650D02*
X9920991Y-9906174D01*
X9920991Y-9906174D02*
X9930515Y-9925222D01*
X9930515Y-9925222D02*
X9930515Y-10029984D01*
X10320991Y-9820460D02*
X10149563Y-10077603D01*
X10578134Y-9829984D02*
X10597182Y-9829984D01*
X10597182Y-9829984D02*
X10616229Y-9839508D01*
X10616229Y-9839508D02*
X10625753Y-9849031D01*
X10625753Y-9849031D02*
X10635277Y-9868079D01*
X10635277Y-9868079D02*
X10644801Y-9906174D01*
X10644801Y-9906174D02*
X10644801Y-9953793D01*
X10644801Y-9953793D02*
X10635277Y-9991889D01*
X10635277Y-9991889D02*
X10625753Y-10010936D01*
X10625753Y-10010936D02*
X10616229Y-10020460D01*
X10616229Y-10020460D02*
X10597182Y-10029984D01*
X10597182Y-10029984D02*
X10578134Y-10029984D01*
X10578134Y-10029984D02*
X10559087Y-10020460D01*
X10559087Y-10020460D02*
X10549563Y-10010936D01*
X10549563Y-10010936D02*
X10540039Y-9991889D01*
X10540039Y-9991889D02*
X10530515Y-9953793D01*
X10530515Y-9953793D02*
X10530515Y-9906174D01*
X10530515Y-9906174D02*
X10540039Y-9868079D01*
X10540039Y-9868079D02*
X10549563Y-9849031D01*
X10549563Y-9849031D02*
X10559087Y-9839508D01*
X10559087Y-9839508D02*
X10578134Y-9829984D01*
X10730515Y-10010936D02*
X10740039Y-10020460D01*
X10740039Y-10020460D02*
X10730515Y-10029984D01*
X10730515Y-10029984D02*
X10720991Y-10020460D01*
X10720991Y-10020460D02*
X10730515Y-10010936D01*
X10730515Y-10010936D02*
X10730515Y-10029984D01*
X10863848Y-9829984D02*
X10882896Y-9829984D01*
X10882896Y-9829984D02*
X10901944Y-9839508D01*
X10901944Y-9839508D02*
X10911468Y-9849031D01*
X10911468Y-9849031D02*
X10920991Y-9868079D01*
X10920991Y-9868079D02*
X10930515Y-9906174D01*
X10930515Y-9906174D02*
X10930515Y-9953793D01*
X10930515Y-9953793D02*
X10920991Y-9991889D01*
X10920991Y-9991889D02*
X10911468Y-10010936D01*
X10911468Y-10010936D02*
X10901944Y-10020460D01*
X10901944Y-10020460D02*
X10882896Y-10029984D01*
X10882896Y-10029984D02*
X10863848Y-10029984D01*
X10863848Y-10029984D02*
X10844801Y-10020460D01*
X10844801Y-10020460D02*
X10835277Y-10010936D01*
X10835277Y-10010936D02*
X10825753Y-9991889D01*
X10825753Y-9991889D02*
X10816229Y-9953793D01*
X10816229Y-9953793D02*
X10816229Y-9906174D01*
X10816229Y-9906174D02*
X10825753Y-9868079D01*
X10825753Y-9868079D02*
X10835277Y-9849031D01*
X10835277Y-9849031D02*
X10844801Y-9839508D01*
X10844801Y-9839508D02*
X10863848Y-9829984D01*
X11006706Y-9849031D02*
X11016229Y-9839508D01*
X11016229Y-9839508D02*
X11035277Y-9829984D01*
X11035277Y-9829984D02*
X11082896Y-9829984D01*
X11082896Y-9829984D02*
X11101944Y-9839508D01*
X11101944Y-9839508D02*
X11111468Y-9849031D01*
X11111468Y-9849031D02*
X11120991Y-9868079D01*
X11120991Y-9868079D02*
X11120991Y-9887127D01*
X11120991Y-9887127D02*
X11111468Y-9915698D01*
X11111468Y-9915698D02*
X10997182Y-10029984D01*
X10997182Y-10029984D02*
X11120991Y-10029984D01*
X11301944Y-9829984D02*
X11206706Y-9829984D01*
X11206706Y-9829984D02*
X11197182Y-9925222D01*
X11197182Y-9925222D02*
X11206706Y-9915698D01*
X11206706Y-9915698D02*
X11225753Y-9906174D01*
X11225753Y-9906174D02*
X11273372Y-9906174D01*
X11273372Y-9906174D02*
X11292420Y-9915698D01*
X11292420Y-9915698D02*
X11301944Y-9925222D01*
X11301944Y-9925222D02*
X11311467Y-9944270D01*
X11311467Y-9944270D02*
X11311467Y-9991889D01*
X11311467Y-9991889D02*
X11301944Y-10010936D01*
X11301944Y-10010936D02*
X11292420Y-10020460D01*
X11292420Y-10020460D02*
X11273372Y-10029984D01*
X11273372Y-10029984D02*
X11225753Y-10029984D01*
X11225753Y-10029984D02*
X11206706Y-10020460D01*
X11206706Y-10020460D02*
X11197182Y-10010936D01*
X11482896Y-9829984D02*
X11444801Y-9829984D01*
X11444801Y-9829984D02*
X11425753Y-9839508D01*
X11425753Y-9839508D02*
X11416229Y-9849031D01*
X11416229Y-9849031D02*
X11397182Y-9877603D01*
X11397182Y-9877603D02*
X11387658Y-9915698D01*
X11387658Y-9915698D02*
X11387658Y-9991889D01*
X11387658Y-9991889D02*
X11397182Y-10010936D01*
X11397182Y-10010936D02*
X11406706Y-10020460D01*
X11406706Y-10020460D02*
X11425753Y-10029984D01*
X11425753Y-10029984D02*
X11463848Y-10029984D01*
X11463848Y-10029984D02*
X11482896Y-10020460D01*
X11482896Y-10020460D02*
X11492420Y-10010936D01*
X11492420Y-10010936D02*
X11501944Y-9991889D01*
X11501944Y-9991889D02*
X11501944Y-9944270D01*
X11501944Y-9944270D02*
X11492420Y-9925222D01*
X11492420Y-9925222D02*
X11482896Y-9915698D01*
X11482896Y-9915698D02*
X11463848Y-9906174D01*
X11463848Y-9906174D02*
X11425753Y-9906174D01*
X11425753Y-9906174D02*
X11406706Y-9915698D01*
X11406706Y-9915698D02*
X11397182Y-9925222D01*
X11397182Y-9925222D02*
X11387658Y-9944270D01*
X11578134Y-9829984D02*
X11578134Y-9868079D01*
X11654325Y-9829984D02*
X11654325Y-9868079D01*
X11949563Y-10106174D02*
X11940039Y-10096650D01*
X11940039Y-10096650D02*
X11920991Y-10068079D01*
X11920991Y-10068079D02*
X11911468Y-10049031D01*
X11911468Y-10049031D02*
X11901944Y-10020460D01*
X11901944Y-10020460D02*
X11892420Y-9972841D01*
X11892420Y-9972841D02*
X11892420Y-9934746D01*
X11892420Y-9934746D02*
X11901944Y-9887127D01*
X11901944Y-9887127D02*
X11911468Y-9858555D01*
X11911468Y-9858555D02*
X11920991Y-9839508D01*
X11920991Y-9839508D02*
X11940039Y-9810936D01*
X11940039Y-9810936D02*
X11949563Y-9801412D01*
X12006706Y-9829984D02*
X12130515Y-9829984D01*
X12130515Y-9829984D02*
X12063848Y-9906174D01*
X12063848Y-9906174D02*
X12092420Y-9906174D01*
X12092420Y-9906174D02*
X12111468Y-9915698D01*
X12111468Y-9915698D02*
X12120991Y-9925222D01*
X12120991Y-9925222D02*
X12130515Y-9944270D01*
X12130515Y-9944270D02*
X12130515Y-9991889D01*
X12130515Y-9991889D02*
X12120991Y-10010936D01*
X12120991Y-10010936D02*
X12111468Y-10020460D01*
X12111468Y-10020460D02*
X12092420Y-10029984D01*
X12092420Y-10029984D02*
X12035277Y-10029984D01*
X12035277Y-10029984D02*
X12016229Y-10020460D01*
X12016229Y-10020460D02*
X12006706Y-10010936D01*
X12244801Y-9915698D02*
X12225753Y-9906174D01*
X12225753Y-9906174D02*
X12216229Y-9896650D01*
X12216229Y-9896650D02*
X12206706Y-9877603D01*
X12206706Y-9877603D02*
X12206706Y-9868079D01*
X12206706Y-9868079D02*
X12216229Y-9849031D01*
X12216229Y-9849031D02*
X12225753Y-9839508D01*
X12225753Y-9839508D02*
X12244801Y-9829984D01*
X12244801Y-9829984D02*
X12282896Y-9829984D01*
X12282896Y-9829984D02*
X12301944Y-9839508D01*
X12301944Y-9839508D02*
X12311468Y-9849031D01*
X12311468Y-9849031D02*
X12320991Y-9868079D01*
X12320991Y-9868079D02*
X12320991Y-9877603D01*
X12320991Y-9877603D02*
X12311468Y-9896650D01*
X12311468Y-9896650D02*
X12301944Y-9906174D01*
X12301944Y-9906174D02*
X12282896Y-9915698D01*
X12282896Y-9915698D02*
X12244801Y-9915698D01*
X12244801Y-9915698D02*
X12225753Y-9925222D01*
X12225753Y-9925222D02*
X12216229Y-9934746D01*
X12216229Y-9934746D02*
X12206706Y-9953793D01*
X12206706Y-9953793D02*
X12206706Y-9991889D01*
X12206706Y-9991889D02*
X12216229Y-10010936D01*
X12216229Y-10010936D02*
X12225753Y-10020460D01*
X12225753Y-10020460D02*
X12244801Y-10029984D01*
X12244801Y-10029984D02*
X12282896Y-10029984D01*
X12282896Y-10029984D02*
X12301944Y-10020460D01*
X12301944Y-10020460D02*
X12311468Y-10010936D01*
X12311468Y-10010936D02*
X12320991Y-9991889D01*
X12320991Y-9991889D02*
X12320991Y-9953793D01*
X12320991Y-9953793D02*
X12311468Y-9934746D01*
X12311468Y-9934746D02*
X12301944Y-9925222D01*
X12301944Y-9925222D02*
X12282896Y-9915698D01*
X12559087Y-10029984D02*
X12559087Y-9829984D01*
X12644801Y-10029984D02*
X12644801Y-9925222D01*
X12644801Y-9925222D02*
X12635277Y-9906174D01*
X12635277Y-9906174D02*
X12616230Y-9896650D01*
X12616230Y-9896650D02*
X12587658Y-9896650D01*
X12587658Y-9896650D02*
X12568610Y-9906174D01*
X12568610Y-9906174D02*
X12559087Y-9915698D01*
X12768610Y-10029984D02*
X12749563Y-10020460D01*
X12749563Y-10020460D02*
X12740039Y-10010936D01*
X12740039Y-10010936D02*
X12730515Y-9991889D01*
X12730515Y-9991889D02*
X12730515Y-9934746D01*
X12730515Y-9934746D02*
X12740039Y-9915698D01*
X12740039Y-9915698D02*
X12749563Y-9906174D01*
X12749563Y-9906174D02*
X12768610Y-9896650D01*
X12768610Y-9896650D02*
X12797182Y-9896650D01*
X12797182Y-9896650D02*
X12816230Y-9906174D01*
X12816230Y-9906174D02*
X12825753Y-9915698D01*
X12825753Y-9915698D02*
X12835277Y-9934746D01*
X12835277Y-9934746D02*
X12835277Y-9991889D01*
X12835277Y-9991889D02*
X12825753Y-10010936D01*
X12825753Y-10010936D02*
X12816230Y-10020460D01*
X12816230Y-10020460D02*
X12797182Y-10029984D01*
X12797182Y-10029984D02*
X12768610Y-10029984D01*
X12949563Y-10029984D02*
X12930515Y-10020460D01*
X12930515Y-10020460D02*
X12920991Y-10001412D01*
X12920991Y-10001412D02*
X12920991Y-9829984D01*
X13101944Y-10020460D02*
X13082896Y-10029984D01*
X13082896Y-10029984D02*
X13044801Y-10029984D01*
X13044801Y-10029984D02*
X13025753Y-10020460D01*
X13025753Y-10020460D02*
X13016230Y-10001412D01*
X13016230Y-10001412D02*
X13016230Y-9925222D01*
X13016230Y-9925222D02*
X13025753Y-9906174D01*
X13025753Y-9906174D02*
X13044801Y-9896650D01*
X13044801Y-9896650D02*
X13082896Y-9896650D01*
X13082896Y-9896650D02*
X13101944Y-9906174D01*
X13101944Y-9906174D02*
X13111468Y-9925222D01*
X13111468Y-9925222D02*
X13111468Y-9944270D01*
X13111468Y-9944270D02*
X13016230Y-9963317D01*
X13187658Y-10020460D02*
X13206706Y-10029984D01*
X13206706Y-10029984D02*
X13244801Y-10029984D01*
X13244801Y-10029984D02*
X13263849Y-10020460D01*
X13263849Y-10020460D02*
X13273372Y-10001412D01*
X13273372Y-10001412D02*
X13273372Y-9991889D01*
X13273372Y-9991889D02*
X13263849Y-9972841D01*
X13263849Y-9972841D02*
X13244801Y-9963317D01*
X13244801Y-9963317D02*
X13216230Y-9963317D01*
X13216230Y-9963317D02*
X13197182Y-9953793D01*
X13197182Y-9953793D02*
X13187658Y-9934746D01*
X13187658Y-9934746D02*
X13187658Y-9925222D01*
X13187658Y-9925222D02*
X13197182Y-9906174D01*
X13197182Y-9906174D02*
X13216230Y-9896650D01*
X13216230Y-9896650D02*
X13244801Y-9896650D01*
X13244801Y-9896650D02*
X13263849Y-9906174D01*
X13340039Y-10106174D02*
X13349563Y-10096650D01*
X13349563Y-10096650D02*
X13368611Y-10068079D01*
X13368611Y-10068079D02*
X13378134Y-10049031D01*
X13378134Y-10049031D02*
X13387658Y-10020460D01*
X13387658Y-10020460D02*
X13397182Y-9972841D01*
X13397182Y-9972841D02*
X13397182Y-9934746D01*
X13397182Y-9934746D02*
X13387658Y-9887127D01*
X13387658Y-9887127D02*
X13378134Y-9858555D01*
X13378134Y-9858555D02*
X13368611Y-9839508D01*
X13368611Y-9839508D02*
X13349563Y-9810936D01*
X13349563Y-9810936D02*
X13340039Y-9801412D01*
D15*
X8362052Y-10232552D02*
X8362052Y-10172448D01*
X8301948Y-10172448D01*
X8301948Y-10232552D01*
X8362052Y-10232552D01*
D11*
X8673372Y-10093984D02*
X8692420Y-10093984D01*
X8692420Y-10093984D02*
X8711467Y-10103508D01*
X8711467Y-10103508D02*
X8720991Y-10113031D01*
X8720991Y-10113031D02*
X8730515Y-10132079D01*
X8730515Y-10132079D02*
X8740039Y-10170174D01*
X8740039Y-10170174D02*
X8740039Y-10217793D01*
X8740039Y-10217793D02*
X8730515Y-10255889D01*
X8730515Y-10255889D02*
X8720991Y-10274936D01*
X8720991Y-10274936D02*
X8711467Y-10284460D01*
X8711467Y-10284460D02*
X8692420Y-10293984D01*
X8692420Y-10293984D02*
X8673372Y-10293984D01*
X8673372Y-10293984D02*
X8654324Y-10284460D01*
X8654324Y-10284460D02*
X8644801Y-10274936D01*
X8644801Y-10274936D02*
X8635277Y-10255889D01*
X8635277Y-10255889D02*
X8625753Y-10217793D01*
X8625753Y-10217793D02*
X8625753Y-10170174D01*
X8625753Y-10170174D02*
X8635277Y-10132079D01*
X8635277Y-10132079D02*
X8644801Y-10113031D01*
X8644801Y-10113031D02*
X8654324Y-10103508D01*
X8654324Y-10103508D02*
X8673372Y-10093984D01*
X8825753Y-10274936D02*
X8835277Y-10284460D01*
X8835277Y-10284460D02*
X8825753Y-10293984D01*
X8825753Y-10293984D02*
X8816229Y-10284460D01*
X8816229Y-10284460D02*
X8825753Y-10274936D01*
X8825753Y-10274936D02*
X8825753Y-10293984D01*
X8949563Y-10179698D02*
X8930515Y-10170174D01*
X8930515Y-10170174D02*
X8920991Y-10160650D01*
X8920991Y-10160650D02*
X8911467Y-10141603D01*
X8911467Y-10141603D02*
X8911467Y-10132079D01*
X8911467Y-10132079D02*
X8920991Y-10113031D01*
X8920991Y-10113031D02*
X8930515Y-10103508D01*
X8930515Y-10103508D02*
X8949563Y-10093984D01*
X8949563Y-10093984D02*
X8987658Y-10093984D01*
X8987658Y-10093984D02*
X9006705Y-10103508D01*
X9006705Y-10103508D02*
X9016229Y-10113031D01*
X9016229Y-10113031D02*
X9025753Y-10132079D01*
X9025753Y-10132079D02*
X9025753Y-10141603D01*
X9025753Y-10141603D02*
X9016229Y-10160650D01*
X9016229Y-10160650D02*
X9006705Y-10170174D01*
X9006705Y-10170174D02*
X8987658Y-10179698D01*
X8987658Y-10179698D02*
X8949563Y-10179698D01*
X8949563Y-10179698D02*
X8930515Y-10189222D01*
X8930515Y-10189222D02*
X8920991Y-10198746D01*
X8920991Y-10198746D02*
X8911467Y-10217793D01*
X8911467Y-10217793D02*
X8911467Y-10255889D01*
X8911467Y-10255889D02*
X8920991Y-10274936D01*
X8920991Y-10274936D02*
X8930515Y-10284460D01*
X8930515Y-10284460D02*
X8949563Y-10293984D01*
X8949563Y-10293984D02*
X8987658Y-10293984D01*
X8987658Y-10293984D02*
X9006705Y-10284460D01*
X9006705Y-10284460D02*
X9016229Y-10274936D01*
X9016229Y-10274936D02*
X9025753Y-10255889D01*
X9025753Y-10255889D02*
X9025753Y-10217793D01*
X9025753Y-10217793D02*
X9016229Y-10198746D01*
X9016229Y-10198746D02*
X9006705Y-10189222D01*
X9006705Y-10189222D02*
X8987658Y-10179698D01*
X9206705Y-10093984D02*
X9111467Y-10093984D01*
X9111467Y-10093984D02*
X9101944Y-10189222D01*
X9101944Y-10189222D02*
X9111467Y-10179698D01*
X9111467Y-10179698D02*
X9130515Y-10170174D01*
X9130515Y-10170174D02*
X9178134Y-10170174D01*
X9178134Y-10170174D02*
X9197182Y-10179698D01*
X9197182Y-10179698D02*
X9206705Y-10189222D01*
X9206705Y-10189222D02*
X9216229Y-10208270D01*
X9216229Y-10208270D02*
X9216229Y-10255889D01*
X9216229Y-10255889D02*
X9206705Y-10274936D01*
X9206705Y-10274936D02*
X9197182Y-10284460D01*
X9197182Y-10284460D02*
X9178134Y-10293984D01*
X9178134Y-10293984D02*
X9130515Y-10293984D01*
X9130515Y-10293984D02*
X9111467Y-10284460D01*
X9111467Y-10284460D02*
X9101944Y-10274936D01*
X9340039Y-10093984D02*
X9359086Y-10093984D01*
X9359086Y-10093984D02*
X9378134Y-10103508D01*
X9378134Y-10103508D02*
X9387658Y-10113031D01*
X9387658Y-10113031D02*
X9397182Y-10132079D01*
X9397182Y-10132079D02*
X9406705Y-10170174D01*
X9406705Y-10170174D02*
X9406705Y-10217793D01*
X9406705Y-10217793D02*
X9397182Y-10255889D01*
X9397182Y-10255889D02*
X9387658Y-10274936D01*
X9387658Y-10274936D02*
X9378134Y-10284460D01*
X9378134Y-10284460D02*
X9359086Y-10293984D01*
X9359086Y-10293984D02*
X9340039Y-10293984D01*
X9340039Y-10293984D02*
X9320991Y-10284460D01*
X9320991Y-10284460D02*
X9311467Y-10274936D01*
X9311467Y-10274936D02*
X9301944Y-10255889D01*
X9301944Y-10255889D02*
X9292420Y-10217793D01*
X9292420Y-10217793D02*
X9292420Y-10170174D01*
X9292420Y-10170174D02*
X9301944Y-10132079D01*
X9301944Y-10132079D02*
X9311467Y-10113031D01*
X9311467Y-10113031D02*
X9320991Y-10103508D01*
X9320991Y-10103508D02*
X9340039Y-10093984D01*
X9492420Y-10293984D02*
X9492420Y-10160650D01*
X9492420Y-10179698D02*
X9501944Y-10170174D01*
X9501944Y-10170174D02*
X9520991Y-10160650D01*
X9520991Y-10160650D02*
X9549563Y-10160650D01*
X9549563Y-10160650D02*
X9568610Y-10170174D01*
X9568610Y-10170174D02*
X9578134Y-10189222D01*
X9578134Y-10189222D02*
X9578134Y-10293984D01*
X9578134Y-10189222D02*
X9587658Y-10170174D01*
X9587658Y-10170174D02*
X9606705Y-10160650D01*
X9606705Y-10160650D02*
X9635277Y-10160650D01*
X9635277Y-10160650D02*
X9654325Y-10170174D01*
X9654325Y-10170174D02*
X9663848Y-10189222D01*
X9663848Y-10189222D02*
X9663848Y-10293984D01*
X9759086Y-10293984D02*
X9759086Y-10160650D01*
X9759086Y-10179698D02*
X9768610Y-10170174D01*
X9768610Y-10170174D02*
X9787658Y-10160650D01*
X9787658Y-10160650D02*
X9816229Y-10160650D01*
X9816229Y-10160650D02*
X9835277Y-10170174D01*
X9835277Y-10170174D02*
X9844801Y-10189222D01*
X9844801Y-10189222D02*
X9844801Y-10293984D01*
X9844801Y-10189222D02*
X9854325Y-10170174D01*
X9854325Y-10170174D02*
X9873372Y-10160650D01*
X9873372Y-10160650D02*
X9901944Y-10160650D01*
X9901944Y-10160650D02*
X9920991Y-10170174D01*
X9920991Y-10170174D02*
X9930515Y-10189222D01*
X9930515Y-10189222D02*
X9930515Y-10293984D01*
X10320991Y-10084460D02*
X10149563Y-10341603D01*
X10578134Y-10093984D02*
X10597182Y-10093984D01*
X10597182Y-10093984D02*
X10616229Y-10103508D01*
X10616229Y-10103508D02*
X10625753Y-10113031D01*
X10625753Y-10113031D02*
X10635277Y-10132079D01*
X10635277Y-10132079D02*
X10644801Y-10170174D01*
X10644801Y-10170174D02*
X10644801Y-10217793D01*
X10644801Y-10217793D02*
X10635277Y-10255889D01*
X10635277Y-10255889D02*
X10625753Y-10274936D01*
X10625753Y-10274936D02*
X10616229Y-10284460D01*
X10616229Y-10284460D02*
X10597182Y-10293984D01*
X10597182Y-10293984D02*
X10578134Y-10293984D01*
X10578134Y-10293984D02*
X10559087Y-10284460D01*
X10559087Y-10284460D02*
X10549563Y-10274936D01*
X10549563Y-10274936D02*
X10540039Y-10255889D01*
X10540039Y-10255889D02*
X10530515Y-10217793D01*
X10530515Y-10217793D02*
X10530515Y-10170174D01*
X10530515Y-10170174D02*
X10540039Y-10132079D01*
X10540039Y-10132079D02*
X10549563Y-10113031D01*
X10549563Y-10113031D02*
X10559087Y-10103508D01*
X10559087Y-10103508D02*
X10578134Y-10093984D01*
X10730515Y-10274936D02*
X10740039Y-10284460D01*
X10740039Y-10284460D02*
X10730515Y-10293984D01*
X10730515Y-10293984D02*
X10720991Y-10284460D01*
X10720991Y-10284460D02*
X10730515Y-10274936D01*
X10730515Y-10274936D02*
X10730515Y-10293984D01*
X10863848Y-10093984D02*
X10882896Y-10093984D01*
X10882896Y-10093984D02*
X10901944Y-10103508D01*
X10901944Y-10103508D02*
X10911468Y-10113031D01*
X10911468Y-10113031D02*
X10920991Y-10132079D01*
X10920991Y-10132079D02*
X10930515Y-10170174D01*
X10930515Y-10170174D02*
X10930515Y-10217793D01*
X10930515Y-10217793D02*
X10920991Y-10255889D01*
X10920991Y-10255889D02*
X10911468Y-10274936D01*
X10911468Y-10274936D02*
X10901944Y-10284460D01*
X10901944Y-10284460D02*
X10882896Y-10293984D01*
X10882896Y-10293984D02*
X10863848Y-10293984D01*
X10863848Y-10293984D02*
X10844801Y-10284460D01*
X10844801Y-10284460D02*
X10835277Y-10274936D01*
X10835277Y-10274936D02*
X10825753Y-10255889D01*
X10825753Y-10255889D02*
X10816229Y-10217793D01*
X10816229Y-10217793D02*
X10816229Y-10170174D01*
X10816229Y-10170174D02*
X10825753Y-10132079D01*
X10825753Y-10132079D02*
X10835277Y-10113031D01*
X10835277Y-10113031D02*
X10844801Y-10103508D01*
X10844801Y-10103508D02*
X10863848Y-10093984D01*
X10997182Y-10093984D02*
X11120991Y-10093984D01*
X11120991Y-10093984D02*
X11054325Y-10170174D01*
X11054325Y-10170174D02*
X11082896Y-10170174D01*
X11082896Y-10170174D02*
X11101944Y-10179698D01*
X11101944Y-10179698D02*
X11111468Y-10189222D01*
X11111468Y-10189222D02*
X11120991Y-10208270D01*
X11120991Y-10208270D02*
X11120991Y-10255889D01*
X11120991Y-10255889D02*
X11111468Y-10274936D01*
X11111468Y-10274936D02*
X11101944Y-10284460D01*
X11101944Y-10284460D02*
X11082896Y-10293984D01*
X11082896Y-10293984D02*
X11025753Y-10293984D01*
X11025753Y-10293984D02*
X11006706Y-10284460D01*
X11006706Y-10284460D02*
X10997182Y-10274936D01*
X11187658Y-10093984D02*
X11311467Y-10093984D01*
X11311467Y-10093984D02*
X11244801Y-10170174D01*
X11244801Y-10170174D02*
X11273372Y-10170174D01*
X11273372Y-10170174D02*
X11292420Y-10179698D01*
X11292420Y-10179698D02*
X11301944Y-10189222D01*
X11301944Y-10189222D02*
X11311467Y-10208270D01*
X11311467Y-10208270D02*
X11311467Y-10255889D01*
X11311467Y-10255889D02*
X11301944Y-10274936D01*
X11301944Y-10274936D02*
X11292420Y-10284460D01*
X11292420Y-10284460D02*
X11273372Y-10293984D01*
X11273372Y-10293984D02*
X11216229Y-10293984D01*
X11216229Y-10293984D02*
X11197182Y-10284460D01*
X11197182Y-10284460D02*
X11187658Y-10274936D01*
X11492420Y-10093984D02*
X11397182Y-10093984D01*
X11397182Y-10093984D02*
X11387658Y-10189222D01*
X11387658Y-10189222D02*
X11397182Y-10179698D01*
X11397182Y-10179698D02*
X11416229Y-10170174D01*
X11416229Y-10170174D02*
X11463848Y-10170174D01*
X11463848Y-10170174D02*
X11482896Y-10179698D01*
X11482896Y-10179698D02*
X11492420Y-10189222D01*
X11492420Y-10189222D02*
X11501944Y-10208270D01*
X11501944Y-10208270D02*
X11501944Y-10255889D01*
X11501944Y-10255889D02*
X11492420Y-10274936D01*
X11492420Y-10274936D02*
X11482896Y-10284460D01*
X11482896Y-10284460D02*
X11463848Y-10293984D01*
X11463848Y-10293984D02*
X11416229Y-10293984D01*
X11416229Y-10293984D02*
X11397182Y-10284460D01*
X11397182Y-10284460D02*
X11387658Y-10274936D01*
X11578134Y-10093984D02*
X11578134Y-10132079D01*
X11654325Y-10093984D02*
X11654325Y-10132079D01*
X11949563Y-10370174D02*
X11940039Y-10360650D01*
X11940039Y-10360650D02*
X11920991Y-10332079D01*
X11920991Y-10332079D02*
X11911468Y-10313031D01*
X11911468Y-10313031D02*
X11901944Y-10284460D01*
X11901944Y-10284460D02*
X11892420Y-10236841D01*
X11892420Y-10236841D02*
X11892420Y-10198746D01*
X11892420Y-10198746D02*
X11901944Y-10151127D01*
X11901944Y-10151127D02*
X11911468Y-10122555D01*
X11911468Y-10122555D02*
X11920991Y-10103508D01*
X11920991Y-10103508D02*
X11940039Y-10074936D01*
X11940039Y-10074936D02*
X11949563Y-10065412D01*
X12063848Y-10093984D02*
X12082896Y-10093984D01*
X12082896Y-10093984D02*
X12101944Y-10103508D01*
X12101944Y-10103508D02*
X12111468Y-10113031D01*
X12111468Y-10113031D02*
X12120991Y-10132079D01*
X12120991Y-10132079D02*
X12130515Y-10170174D01*
X12130515Y-10170174D02*
X12130515Y-10217793D01*
X12130515Y-10217793D02*
X12120991Y-10255889D01*
X12120991Y-10255889D02*
X12111468Y-10274936D01*
X12111468Y-10274936D02*
X12101944Y-10284460D01*
X12101944Y-10284460D02*
X12082896Y-10293984D01*
X12082896Y-10293984D02*
X12063848Y-10293984D01*
X12063848Y-10293984D02*
X12044801Y-10284460D01*
X12044801Y-10284460D02*
X12035277Y-10274936D01*
X12035277Y-10274936D02*
X12025753Y-10255889D01*
X12025753Y-10255889D02*
X12016229Y-10217793D01*
X12016229Y-10217793D02*
X12016229Y-10170174D01*
X12016229Y-10170174D02*
X12025753Y-10132079D01*
X12025753Y-10132079D02*
X12035277Y-10113031D01*
X12035277Y-10113031D02*
X12044801Y-10103508D01*
X12044801Y-10103508D02*
X12063848Y-10093984D01*
X12368610Y-10293984D02*
X12368610Y-10093984D01*
X12454325Y-10293984D02*
X12454325Y-10189222D01*
X12454325Y-10189222D02*
X12444801Y-10170174D01*
X12444801Y-10170174D02*
X12425753Y-10160650D01*
X12425753Y-10160650D02*
X12397182Y-10160650D01*
X12397182Y-10160650D02*
X12378134Y-10170174D01*
X12378134Y-10170174D02*
X12368610Y-10179698D01*
X12578134Y-10293984D02*
X12559087Y-10284460D01*
X12559087Y-10284460D02*
X12549563Y-10274936D01*
X12549563Y-10274936D02*
X12540039Y-10255889D01*
X12540039Y-10255889D02*
X12540039Y-10198746D01*
X12540039Y-10198746D02*
X12549563Y-10179698D01*
X12549563Y-10179698D02*
X12559087Y-10170174D01*
X12559087Y-10170174D02*
X12578134Y-10160650D01*
X12578134Y-10160650D02*
X12606706Y-10160650D01*
X12606706Y-10160650D02*
X12625753Y-10170174D01*
X12625753Y-10170174D02*
X12635277Y-10179698D01*
X12635277Y-10179698D02*
X12644801Y-10198746D01*
X12644801Y-10198746D02*
X12644801Y-10255889D01*
X12644801Y-10255889D02*
X12635277Y-10274936D01*
X12635277Y-10274936D02*
X12625753Y-10284460D01*
X12625753Y-10284460D02*
X12606706Y-10293984D01*
X12606706Y-10293984D02*
X12578134Y-10293984D01*
X12759087Y-10293984D02*
X12740039Y-10284460D01*
X12740039Y-10284460D02*
X12730515Y-10265412D01*
X12730515Y-10265412D02*
X12730515Y-10093984D01*
X12911468Y-10284460D02*
X12892420Y-10293984D01*
X12892420Y-10293984D02*
X12854325Y-10293984D01*
X12854325Y-10293984D02*
X12835277Y-10284460D01*
X12835277Y-10284460D02*
X12825753Y-10265412D01*
X12825753Y-10265412D02*
X12825753Y-10189222D01*
X12825753Y-10189222D02*
X12835277Y-10170174D01*
X12835277Y-10170174D02*
X12854325Y-10160650D01*
X12854325Y-10160650D02*
X12892420Y-10160650D01*
X12892420Y-10160650D02*
X12911468Y-10170174D01*
X12911468Y-10170174D02*
X12920991Y-10189222D01*
X12920991Y-10189222D02*
X12920991Y-10208270D01*
X12920991Y-10208270D02*
X12825753Y-10227317D01*
X12997182Y-10284460D02*
X13016230Y-10293984D01*
X13016230Y-10293984D02*
X13054325Y-10293984D01*
X13054325Y-10293984D02*
X13073372Y-10284460D01*
X13073372Y-10284460D02*
X13082896Y-10265412D01*
X13082896Y-10265412D02*
X13082896Y-10255889D01*
X13082896Y-10255889D02*
X13073372Y-10236841D01*
X13073372Y-10236841D02*
X13054325Y-10227317D01*
X13054325Y-10227317D02*
X13025753Y-10227317D01*
X13025753Y-10227317D02*
X13006706Y-10217793D01*
X13006706Y-10217793D02*
X12997182Y-10198746D01*
X12997182Y-10198746D02*
X12997182Y-10189222D01*
X12997182Y-10189222D02*
X13006706Y-10170174D01*
X13006706Y-10170174D02*
X13025753Y-10160650D01*
X13025753Y-10160650D02*
X13054325Y-10160650D01*
X13054325Y-10160650D02*
X13073372Y-10170174D01*
X13320992Y-10217793D02*
X13473373Y-10217793D01*
X13397182Y-10293984D02*
X13397182Y-10141603D01*
X13711468Y-10113031D02*
X13720992Y-10103508D01*
X13720992Y-10103508D02*
X13740039Y-10093984D01*
X13740039Y-10093984D02*
X13787658Y-10093984D01*
X13787658Y-10093984D02*
X13806706Y-10103508D01*
X13806706Y-10103508D02*
X13816230Y-10113031D01*
X13816230Y-10113031D02*
X13825753Y-10132079D01*
X13825753Y-10132079D02*
X13825753Y-10151127D01*
X13825753Y-10151127D02*
X13816230Y-10179698D01*
X13816230Y-10179698D02*
X13701944Y-10293984D01*
X13701944Y-10293984D02*
X13825753Y-10293984D01*
X14054325Y-10284460D02*
X14073373Y-10293984D01*
X14073373Y-10293984D02*
X14111468Y-10293984D01*
X14111468Y-10293984D02*
X14130515Y-10284460D01*
X14130515Y-10284460D02*
X14140039Y-10265412D01*
X14140039Y-10265412D02*
X14140039Y-10255889D01*
X14140039Y-10255889D02*
X14130515Y-10236841D01*
X14130515Y-10236841D02*
X14111468Y-10227317D01*
X14111468Y-10227317D02*
X14082896Y-10227317D01*
X14082896Y-10227317D02*
X14063849Y-10217793D01*
X14063849Y-10217793D02*
X14054325Y-10198746D01*
X14054325Y-10198746D02*
X14054325Y-10189222D01*
X14054325Y-10189222D02*
X14063849Y-10170174D01*
X14063849Y-10170174D02*
X14082896Y-10160650D01*
X14082896Y-10160650D02*
X14111468Y-10160650D01*
X14111468Y-10160650D02*
X14130515Y-10170174D01*
X14254325Y-10293984D02*
X14235277Y-10284460D01*
X14235277Y-10284460D02*
X14225754Y-10265412D01*
X14225754Y-10265412D02*
X14225754Y-10093984D01*
X14359087Y-10293984D02*
X14340039Y-10284460D01*
X14340039Y-10284460D02*
X14330515Y-10274936D01*
X14330515Y-10274936D02*
X14320992Y-10255889D01*
X14320992Y-10255889D02*
X14320992Y-10198746D01*
X14320992Y-10198746D02*
X14330515Y-10179698D01*
X14330515Y-10179698D02*
X14340039Y-10170174D01*
X14340039Y-10170174D02*
X14359087Y-10160650D01*
X14359087Y-10160650D02*
X14387658Y-10160650D01*
X14387658Y-10160650D02*
X14406706Y-10170174D01*
X14406706Y-10170174D02*
X14416230Y-10179698D01*
X14416230Y-10179698D02*
X14425754Y-10198746D01*
X14425754Y-10198746D02*
X14425754Y-10255889D01*
X14425754Y-10255889D02*
X14416230Y-10274936D01*
X14416230Y-10274936D02*
X14406706Y-10284460D01*
X14406706Y-10284460D02*
X14387658Y-10293984D01*
X14387658Y-10293984D02*
X14359087Y-10293984D01*
X14482896Y-10160650D02*
X14559087Y-10160650D01*
X14511468Y-10093984D02*
X14511468Y-10265412D01*
X14511468Y-10265412D02*
X14520992Y-10284460D01*
X14520992Y-10284460D02*
X14540039Y-10293984D01*
X14540039Y-10293984D02*
X14559087Y-10293984D01*
X14616230Y-10284460D02*
X14635277Y-10293984D01*
X14635277Y-10293984D02*
X14673373Y-10293984D01*
X14673373Y-10293984D02*
X14692420Y-10284460D01*
X14692420Y-10284460D02*
X14701944Y-10265412D01*
X14701944Y-10265412D02*
X14701944Y-10255889D01*
X14701944Y-10255889D02*
X14692420Y-10236841D01*
X14692420Y-10236841D02*
X14673373Y-10227317D01*
X14673373Y-10227317D02*
X14644801Y-10227317D01*
X14644801Y-10227317D02*
X14625754Y-10217793D01*
X14625754Y-10217793D02*
X14616230Y-10198746D01*
X14616230Y-10198746D02*
X14616230Y-10189222D01*
X14616230Y-10189222D02*
X14625754Y-10170174D01*
X14625754Y-10170174D02*
X14644801Y-10160650D01*
X14644801Y-10160650D02*
X14673373Y-10160650D01*
X14673373Y-10160650D02*
X14692420Y-10170174D01*
X14768611Y-10370174D02*
X14778135Y-10360650D01*
X14778135Y-10360650D02*
X14797182Y-10332079D01*
X14797182Y-10332079D02*
X14806706Y-10313031D01*
X14806706Y-10313031D02*
X14816230Y-10284460D01*
X14816230Y-10284460D02*
X14825754Y-10236841D01*
X14825754Y-10236841D02*
X14825754Y-10198746D01*
X14825754Y-10198746D02*
X14816230Y-10151127D01*
X14816230Y-10151127D02*
X14806706Y-10122555D01*
X14806706Y-10122555D02*
X14797182Y-10103508D01*
X14797182Y-10103508D02*
X14778135Y-10074936D01*
X14778135Y-10074936D02*
X14768611Y-10065412D01*
M02*
