G04 #@! TF.GenerationSoftware,KiCad,Pcbnew,7.0.7*
G04 #@! TF.CreationDate,2023-10-21T10:48:55+02:00*
G04 #@! TF.ProjectId,halfduino,68616c66-6475-4696-9e6f-2e6b69636164,rev?*
G04 #@! TF.SameCoordinates,Original*
G04 #@! TF.FileFunction,Legend,Bot*
G04 #@! TF.FilePolarity,Positive*
%FSLAX46Y46*%
G04 Gerber Fmt 4.6, Leading zero omitted, Abs format (unit mm)*
G04 Created by KiCad (PCBNEW 7.0.7) date 2023-10-21 10:48:55*
%MOMM*%
%LPD*%
G01*
G04 APERTURE LIST*
%ADD10C,0.125000*%
%ADD11C,0.120000*%
%ADD12C,1.000000*%
%ADD13O,1.000000X1.000000*%
%ADD14R,1.000000X1.000000*%
%ADD15O,0.800000X0.800000*%
%ADD16O,1.800000X1.150000*%
%ADD17O,2.000000X1.450000*%
G04 APERTURE END LIST*
D10*
X95564668Y-84494119D02*
X95564668Y-83494119D01*
X95136097Y-84494119D02*
X95136097Y-83970309D01*
X95136097Y-83970309D02*
X95183716Y-83875071D01*
X95183716Y-83875071D02*
X95278954Y-83827452D01*
X95278954Y-83827452D02*
X95421811Y-83827452D01*
X95421811Y-83827452D02*
X95517049Y-83875071D01*
X95517049Y-83875071D02*
X95564668Y-83922690D01*
X94231335Y-84494119D02*
X94231335Y-83970309D01*
X94231335Y-83970309D02*
X94278954Y-83875071D01*
X94278954Y-83875071D02*
X94374192Y-83827452D01*
X94374192Y-83827452D02*
X94564668Y-83827452D01*
X94564668Y-83827452D02*
X94659906Y-83875071D01*
X94231335Y-84446500D02*
X94326573Y-84494119D01*
X94326573Y-84494119D02*
X94564668Y-84494119D01*
X94564668Y-84494119D02*
X94659906Y-84446500D01*
X94659906Y-84446500D02*
X94707525Y-84351261D01*
X94707525Y-84351261D02*
X94707525Y-84256023D01*
X94707525Y-84256023D02*
X94659906Y-84160785D01*
X94659906Y-84160785D02*
X94564668Y-84113166D01*
X94564668Y-84113166D02*
X94326573Y-84113166D01*
X94326573Y-84113166D02*
X94231335Y-84065547D01*
X93612287Y-84494119D02*
X93707525Y-84446500D01*
X93707525Y-84446500D02*
X93755144Y-84351261D01*
X93755144Y-84351261D02*
X93755144Y-83494119D01*
X93374191Y-83827452D02*
X92993239Y-83827452D01*
X93231334Y-84494119D02*
X93231334Y-83636976D01*
X93231334Y-83636976D02*
X93183715Y-83541738D01*
X93183715Y-83541738D02*
X93088477Y-83494119D01*
X93088477Y-83494119D02*
X92993239Y-83494119D01*
X92231334Y-84494119D02*
X92231334Y-83494119D01*
X92231334Y-84446500D02*
X92326572Y-84494119D01*
X92326572Y-84494119D02*
X92517048Y-84494119D01*
X92517048Y-84494119D02*
X92612286Y-84446500D01*
X92612286Y-84446500D02*
X92659905Y-84398880D01*
X92659905Y-84398880D02*
X92707524Y-84303642D01*
X92707524Y-84303642D02*
X92707524Y-84017928D01*
X92707524Y-84017928D02*
X92659905Y-83922690D01*
X92659905Y-83922690D02*
X92612286Y-83875071D01*
X92612286Y-83875071D02*
X92517048Y-83827452D01*
X92517048Y-83827452D02*
X92326572Y-83827452D01*
X92326572Y-83827452D02*
X92231334Y-83875071D01*
X91326572Y-83827452D02*
X91326572Y-84494119D01*
X91755143Y-83827452D02*
X91755143Y-84351261D01*
X91755143Y-84351261D02*
X91707524Y-84446500D01*
X91707524Y-84446500D02*
X91612286Y-84494119D01*
X91612286Y-84494119D02*
X91469429Y-84494119D01*
X91469429Y-84494119D02*
X91374191Y-84446500D01*
X91374191Y-84446500D02*
X91326572Y-84398880D01*
X90850381Y-84494119D02*
X90850381Y-83827452D01*
X90850381Y-83494119D02*
X90898000Y-83541738D01*
X90898000Y-83541738D02*
X90850381Y-83589357D01*
X90850381Y-83589357D02*
X90802762Y-83541738D01*
X90802762Y-83541738D02*
X90850381Y-83494119D01*
X90850381Y-83494119D02*
X90850381Y-83589357D01*
X90374191Y-83827452D02*
X90374191Y-84494119D01*
X90374191Y-83922690D02*
X90326572Y-83875071D01*
X90326572Y-83875071D02*
X90231334Y-83827452D01*
X90231334Y-83827452D02*
X90088477Y-83827452D01*
X90088477Y-83827452D02*
X89993239Y-83875071D01*
X89993239Y-83875071D02*
X89945620Y-83970309D01*
X89945620Y-83970309D02*
X89945620Y-84494119D01*
X89326572Y-84494119D02*
X89421810Y-84446500D01*
X89421810Y-84446500D02*
X89469429Y-84398880D01*
X89469429Y-84398880D02*
X89517048Y-84303642D01*
X89517048Y-84303642D02*
X89517048Y-84017928D01*
X89517048Y-84017928D02*
X89469429Y-83922690D01*
X89469429Y-83922690D02*
X89421810Y-83875071D01*
X89421810Y-83875071D02*
X89326572Y-83827452D01*
X89326572Y-83827452D02*
X89183715Y-83827452D01*
X89183715Y-83827452D02*
X89088477Y-83875071D01*
X89088477Y-83875071D02*
X89040858Y-83922690D01*
X89040858Y-83922690D02*
X88993239Y-84017928D01*
X88993239Y-84017928D02*
X88993239Y-84303642D01*
X88993239Y-84303642D02*
X89040858Y-84398880D01*
X89040858Y-84398880D02*
X89088477Y-84446500D01*
X89088477Y-84446500D02*
X89183715Y-84494119D01*
X89183715Y-84494119D02*
X89326572Y-84494119D01*
X87898000Y-83827452D02*
X87659905Y-84494119D01*
X87659905Y-84494119D02*
X87421810Y-83827452D01*
X86517048Y-84494119D02*
X87088476Y-84494119D01*
X86802762Y-84494119D02*
X86802762Y-83494119D01*
X86802762Y-83494119D02*
X86898000Y-83636976D01*
X86898000Y-83636976D02*
X86993238Y-83732214D01*
X86993238Y-83732214D02*
X87088476Y-83779833D01*
X86088476Y-84398880D02*
X86040857Y-84446500D01*
X86040857Y-84446500D02*
X86088476Y-84494119D01*
X86088476Y-84494119D02*
X86136095Y-84446500D01*
X86136095Y-84446500D02*
X86088476Y-84398880D01*
X86088476Y-84398880D02*
X86088476Y-84494119D01*
X85088477Y-84494119D02*
X85659905Y-84494119D01*
X85374191Y-84494119D02*
X85374191Y-83494119D01*
X85374191Y-83494119D02*
X85469429Y-83636976D01*
X85469429Y-83636976D02*
X85564667Y-83732214D01*
X85564667Y-83732214D02*
X85659905Y-83779833D01*
X94993240Y-86008880D02*
X95040859Y-86056500D01*
X95040859Y-86056500D02*
X95183716Y-86104119D01*
X95183716Y-86104119D02*
X95278954Y-86104119D01*
X95278954Y-86104119D02*
X95421811Y-86056500D01*
X95421811Y-86056500D02*
X95517049Y-85961261D01*
X95517049Y-85961261D02*
X95564668Y-85866023D01*
X95564668Y-85866023D02*
X95612287Y-85675547D01*
X95612287Y-85675547D02*
X95612287Y-85532690D01*
X95612287Y-85532690D02*
X95564668Y-85342214D01*
X95564668Y-85342214D02*
X95517049Y-85246976D01*
X95517049Y-85246976D02*
X95421811Y-85151738D01*
X95421811Y-85151738D02*
X95278954Y-85104119D01*
X95278954Y-85104119D02*
X95183716Y-85104119D01*
X95183716Y-85104119D02*
X95040859Y-85151738D01*
X95040859Y-85151738D02*
X94993240Y-85199357D01*
X94421811Y-86104119D02*
X94517049Y-86056500D01*
X94517049Y-86056500D02*
X94564668Y-86008880D01*
X94564668Y-86008880D02*
X94612287Y-85913642D01*
X94612287Y-85913642D02*
X94612287Y-85627928D01*
X94612287Y-85627928D02*
X94564668Y-85532690D01*
X94564668Y-85532690D02*
X94517049Y-85485071D01*
X94517049Y-85485071D02*
X94421811Y-85437452D01*
X94421811Y-85437452D02*
X94278954Y-85437452D01*
X94278954Y-85437452D02*
X94183716Y-85485071D01*
X94183716Y-85485071D02*
X94136097Y-85532690D01*
X94136097Y-85532690D02*
X94088478Y-85627928D01*
X94088478Y-85627928D02*
X94088478Y-85913642D01*
X94088478Y-85913642D02*
X94136097Y-86008880D01*
X94136097Y-86008880D02*
X94183716Y-86056500D01*
X94183716Y-86056500D02*
X94278954Y-86104119D01*
X94278954Y-86104119D02*
X94421811Y-86104119D01*
X93707525Y-86056500D02*
X93564668Y-86104119D01*
X93564668Y-86104119D02*
X93326573Y-86104119D01*
X93326573Y-86104119D02*
X93231335Y-86056500D01*
X93231335Y-86056500D02*
X93183716Y-86008880D01*
X93183716Y-86008880D02*
X93136097Y-85913642D01*
X93136097Y-85913642D02*
X93136097Y-85818404D01*
X93136097Y-85818404D02*
X93183716Y-85723166D01*
X93183716Y-85723166D02*
X93231335Y-85675547D01*
X93231335Y-85675547D02*
X93326573Y-85627928D01*
X93326573Y-85627928D02*
X93517049Y-85580309D01*
X93517049Y-85580309D02*
X93612287Y-85532690D01*
X93612287Y-85532690D02*
X93659906Y-85485071D01*
X93659906Y-85485071D02*
X93707525Y-85389833D01*
X93707525Y-85389833D02*
X93707525Y-85294595D01*
X93707525Y-85294595D02*
X93659906Y-85199357D01*
X93659906Y-85199357D02*
X93612287Y-85151738D01*
X93612287Y-85151738D02*
X93517049Y-85104119D01*
X93517049Y-85104119D02*
X93278954Y-85104119D01*
X93278954Y-85104119D02*
X93136097Y-85151738D01*
X92278954Y-86104119D02*
X92278954Y-85580309D01*
X92278954Y-85580309D02*
X92326573Y-85485071D01*
X92326573Y-85485071D02*
X92421811Y-85437452D01*
X92421811Y-85437452D02*
X92612287Y-85437452D01*
X92612287Y-85437452D02*
X92707525Y-85485071D01*
X92278954Y-86056500D02*
X92374192Y-86104119D01*
X92374192Y-86104119D02*
X92612287Y-86104119D01*
X92612287Y-86104119D02*
X92707525Y-86056500D01*
X92707525Y-86056500D02*
X92755144Y-85961261D01*
X92755144Y-85961261D02*
X92755144Y-85866023D01*
X92755144Y-85866023D02*
X92707525Y-85770785D01*
X92707525Y-85770785D02*
X92612287Y-85723166D01*
X92612287Y-85723166D02*
X92374192Y-85723166D01*
X92374192Y-85723166D02*
X92278954Y-85675547D01*
X91802763Y-86104119D02*
X91802763Y-85437452D01*
X91802763Y-85104119D02*
X91850382Y-85151738D01*
X91850382Y-85151738D02*
X91802763Y-85199357D01*
X91802763Y-85199357D02*
X91755144Y-85151738D01*
X91755144Y-85151738D02*
X91802763Y-85104119D01*
X91802763Y-85104119D02*
X91802763Y-85199357D01*
X91183716Y-86104119D02*
X91278954Y-86056500D01*
X91278954Y-86056500D02*
X91326573Y-85961261D01*
X91326573Y-85961261D02*
X91326573Y-85104119D01*
X90421811Y-86056500D02*
X90517049Y-86104119D01*
X90517049Y-86104119D02*
X90707525Y-86104119D01*
X90707525Y-86104119D02*
X90802763Y-86056500D01*
X90802763Y-86056500D02*
X90850382Y-85961261D01*
X90850382Y-85961261D02*
X90850382Y-85580309D01*
X90850382Y-85580309D02*
X90802763Y-85485071D01*
X90802763Y-85485071D02*
X90707525Y-85437452D01*
X90707525Y-85437452D02*
X90517049Y-85437452D01*
X90517049Y-85437452D02*
X90421811Y-85485071D01*
X90421811Y-85485071D02*
X90374192Y-85580309D01*
X90374192Y-85580309D02*
X90374192Y-85675547D01*
X90374192Y-85675547D02*
X90850382Y-85770785D01*
X89945620Y-86104119D02*
X89945620Y-85437452D01*
X89945620Y-85627928D02*
X89898001Y-85532690D01*
X89898001Y-85532690D02*
X89850382Y-85485071D01*
X89850382Y-85485071D02*
X89755144Y-85437452D01*
X89755144Y-85437452D02*
X89659906Y-85437452D01*
X101464904Y-75529119D02*
X100893476Y-75529119D01*
X101179190Y-76529119D02*
X101179190Y-75529119D01*
X100560142Y-76529119D02*
X100560142Y-75529119D01*
X100560142Y-75529119D02*
X100179190Y-75529119D01*
X100179190Y-75529119D02*
X100083952Y-75576738D01*
X100083952Y-75576738D02*
X100036333Y-75624357D01*
X100036333Y-75624357D02*
X99988714Y-75719595D01*
X99988714Y-75719595D02*
X99988714Y-75862452D01*
X99988714Y-75862452D02*
X100036333Y-75957690D01*
X100036333Y-75957690D02*
X100083952Y-76005309D01*
X100083952Y-76005309D02*
X100179190Y-76052928D01*
X100179190Y-76052928D02*
X100560142Y-76052928D01*
X99607761Y-75624357D02*
X99560142Y-75576738D01*
X99560142Y-75576738D02*
X99464904Y-75529119D01*
X99464904Y-75529119D02*
X99226809Y-75529119D01*
X99226809Y-75529119D02*
X99131571Y-75576738D01*
X99131571Y-75576738D02*
X99083952Y-75624357D01*
X99083952Y-75624357D02*
X99036333Y-75719595D01*
X99036333Y-75719595D02*
X99036333Y-75814833D01*
X99036333Y-75814833D02*
X99083952Y-75957690D01*
X99083952Y-75957690D02*
X99655380Y-76529119D01*
X99655380Y-76529119D02*
X99036333Y-76529119D01*
X96257904Y-72608119D02*
X95686476Y-72608119D01*
X95972190Y-73608119D02*
X95972190Y-72608119D01*
X95353142Y-73608119D02*
X95353142Y-72608119D01*
X95353142Y-72608119D02*
X94972190Y-72608119D01*
X94972190Y-72608119D02*
X94876952Y-72655738D01*
X94876952Y-72655738D02*
X94829333Y-72703357D01*
X94829333Y-72703357D02*
X94781714Y-72798595D01*
X94781714Y-72798595D02*
X94781714Y-72941452D01*
X94781714Y-72941452D02*
X94829333Y-73036690D01*
X94829333Y-73036690D02*
X94876952Y-73084309D01*
X94876952Y-73084309D02*
X94972190Y-73131928D01*
X94972190Y-73131928D02*
X95353142Y-73131928D01*
X93829333Y-73608119D02*
X94400761Y-73608119D01*
X94115047Y-73608119D02*
X94115047Y-72608119D01*
X94115047Y-72608119D02*
X94210285Y-72750976D01*
X94210285Y-72750976D02*
X94305523Y-72846214D01*
X94305523Y-72846214D02*
X94400761Y-72893833D01*
X109846904Y-83276119D02*
X109275476Y-83276119D01*
X109561190Y-84276119D02*
X109561190Y-83276119D01*
X108942142Y-84276119D02*
X108942142Y-83276119D01*
X108942142Y-83276119D02*
X108561190Y-83276119D01*
X108561190Y-83276119D02*
X108465952Y-83323738D01*
X108465952Y-83323738D02*
X108418333Y-83371357D01*
X108418333Y-83371357D02*
X108370714Y-83466595D01*
X108370714Y-83466595D02*
X108370714Y-83609452D01*
X108370714Y-83609452D02*
X108418333Y-83704690D01*
X108418333Y-83704690D02*
X108465952Y-83752309D01*
X108465952Y-83752309D02*
X108561190Y-83799928D01*
X108561190Y-83799928D02*
X108942142Y-83799928D01*
X107513571Y-83609452D02*
X107513571Y-84276119D01*
X107751666Y-83228500D02*
X107989761Y-83942785D01*
X107989761Y-83942785D02*
X107370714Y-83942785D01*
X107941904Y-77256119D02*
X107370476Y-77256119D01*
X107656190Y-78256119D02*
X107656190Y-77256119D01*
X107037142Y-78256119D02*
X107037142Y-77256119D01*
X107037142Y-77256119D02*
X106656190Y-77256119D01*
X106656190Y-77256119D02*
X106560952Y-77303738D01*
X106560952Y-77303738D02*
X106513333Y-77351357D01*
X106513333Y-77351357D02*
X106465714Y-77446595D01*
X106465714Y-77446595D02*
X106465714Y-77589452D01*
X106465714Y-77589452D02*
X106513333Y-77684690D01*
X106513333Y-77684690D02*
X106560952Y-77732309D01*
X106560952Y-77732309D02*
X106656190Y-77779928D01*
X106656190Y-77779928D02*
X107037142Y-77779928D01*
X105560952Y-77256119D02*
X106037142Y-77256119D01*
X106037142Y-77256119D02*
X106084761Y-77732309D01*
X106084761Y-77732309D02*
X106037142Y-77684690D01*
X106037142Y-77684690D02*
X105941904Y-77637071D01*
X105941904Y-77637071D02*
X105703809Y-77637071D01*
X105703809Y-77637071D02*
X105608571Y-77684690D01*
X105608571Y-77684690D02*
X105560952Y-77732309D01*
X105560952Y-77732309D02*
X105513333Y-77827547D01*
X105513333Y-77827547D02*
X105513333Y-78065642D01*
X105513333Y-78065642D02*
X105560952Y-78160880D01*
X105560952Y-78160880D02*
X105608571Y-78208500D01*
X105608571Y-78208500D02*
X105703809Y-78256119D01*
X105703809Y-78256119D02*
X105941904Y-78256119D01*
X105941904Y-78256119D02*
X106037142Y-78208500D01*
X106037142Y-78208500D02*
X106084761Y-78160880D01*
X99051904Y-80863119D02*
X98480476Y-80863119D01*
X98766190Y-81863119D02*
X98766190Y-80863119D01*
X98147142Y-81863119D02*
X98147142Y-80863119D01*
X98147142Y-80863119D02*
X97766190Y-80863119D01*
X97766190Y-80863119D02*
X97670952Y-80910738D01*
X97670952Y-80910738D02*
X97623333Y-80958357D01*
X97623333Y-80958357D02*
X97575714Y-81053595D01*
X97575714Y-81053595D02*
X97575714Y-81196452D01*
X97575714Y-81196452D02*
X97623333Y-81291690D01*
X97623333Y-81291690D02*
X97670952Y-81339309D01*
X97670952Y-81339309D02*
X97766190Y-81386928D01*
X97766190Y-81386928D02*
X98147142Y-81386928D01*
X97242380Y-80863119D02*
X96623333Y-80863119D01*
X96623333Y-80863119D02*
X96956666Y-81244071D01*
X96956666Y-81244071D02*
X96813809Y-81244071D01*
X96813809Y-81244071D02*
X96718571Y-81291690D01*
X96718571Y-81291690D02*
X96670952Y-81339309D01*
X96670952Y-81339309D02*
X96623333Y-81434547D01*
X96623333Y-81434547D02*
X96623333Y-81672642D01*
X96623333Y-81672642D02*
X96670952Y-81767880D01*
X96670952Y-81767880D02*
X96718571Y-81815500D01*
X96718571Y-81815500D02*
X96813809Y-81863119D01*
X96813809Y-81863119D02*
X97099523Y-81863119D01*
X97099523Y-81863119D02*
X97194761Y-81815500D01*
X97194761Y-81815500D02*
X97242380Y-81767880D01*
D11*
X98617000Y-76835000D02*
G75*
G03*
X98617000Y-76835000I-700000J0D01*
G01*
X97791000Y-72009000D02*
G75*
G03*
X97791000Y-72009000I-700000J0D01*
G01*
X107380000Y-82677000D02*
G75*
G03*
X107380000Y-82677000I-700000J0D01*
G01*
X107380000Y-79248000D02*
G75*
G03*
X107380000Y-79248000I-700000J0D01*
G01*
X100776000Y-80391000D02*
G75*
G03*
X100776000Y-80391000I-700000J0D01*
G01*
%LPC*%
D12*
X97790000Y-86360000D03*
D13*
X99060000Y-86360000D03*
X100330000Y-86360000D03*
X101600000Y-86360000D03*
X102870000Y-86360000D03*
D14*
X104140000Y-86360000D03*
X105410000Y-86360000D03*
D13*
X106680000Y-86360000D03*
X93218000Y-62230000D03*
X94488000Y-62230000D03*
X95758000Y-62230000D03*
D14*
X97028000Y-62230000D03*
D13*
X98298000Y-62230000D03*
X99568000Y-62230000D03*
X100838000Y-62230000D03*
X102108000Y-62230000D03*
X103378000Y-62230000D03*
X104648000Y-62230000D03*
D12*
X115697000Y-72390000D03*
D13*
X116967000Y-72390000D03*
X115697000Y-73660000D03*
X116967000Y-73660000D03*
X115697000Y-74930000D03*
D14*
X116967000Y-74930000D03*
D12*
X109220000Y-86360000D03*
D13*
X110490000Y-86360000D03*
X111760000Y-86360000D03*
X113030000Y-86360000D03*
X114300000Y-86360000D03*
X115570000Y-86360000D03*
D15*
X88430000Y-67265000D03*
X88430000Y-72265000D03*
D16*
X85680000Y-65890000D03*
D17*
X89480000Y-66040000D03*
X89480000Y-73490000D03*
D16*
X85680000Y-73640000D03*
D13*
X106680000Y-62230000D03*
X107950000Y-62230000D03*
X109220000Y-62230000D03*
X110490000Y-62230000D03*
X111760000Y-62230000D03*
X113030000Y-62230000D03*
X114300000Y-62230000D03*
X115570000Y-62230000D03*
D12*
X97917000Y-76835000D03*
X97091000Y-72009000D03*
X106680000Y-82677000D03*
X106680000Y-79248000D03*
X100076000Y-80391000D03*
%LPD*%
M02*
