G04 #@! TF.GenerationSoftware,KiCad,Pcbnew,7.0.7*
G04 #@! TF.CreationDate,2023-10-21T10:48:55+02:00*
G04 #@! TF.ProjectId,halfduino,68616c66-6475-4696-9e6f-2e6b69636164,rev?*
G04 #@! TF.SameCoordinates,Original*
G04 #@! TF.FileFunction,Soldermask,Bot*
G04 #@! TF.FilePolarity,Negative*
%FSLAX46Y46*%
G04 Gerber Fmt 4.6, Leading zero omitted, Abs format (unit mm)*
G04 Created by KiCad (PCBNEW 7.0.7) date 2023-10-21 10:48:55*
%MOMM*%
%LPD*%
G01*
G04 APERTURE LIST*
%ADD10C,1.000000*%
%ADD11O,1.000000X1.000000*%
%ADD12R,1.000000X1.000000*%
%ADD13O,0.800000X0.800000*%
%ADD14O,1.800000X1.150000*%
%ADD15O,2.000000X1.450000*%
G04 APERTURE END LIST*
D10*
X97790000Y-86360000D03*
D11*
X99060000Y-86360000D03*
X100330000Y-86360000D03*
X101600000Y-86360000D03*
X102870000Y-86360000D03*
D12*
X104140000Y-86360000D03*
X105410000Y-86360000D03*
D11*
X106680000Y-86360000D03*
X93218000Y-62230000D03*
X94488000Y-62230000D03*
X95758000Y-62230000D03*
D12*
X97028000Y-62230000D03*
D11*
X98298000Y-62230000D03*
X99568000Y-62230000D03*
X100838000Y-62230000D03*
X102108000Y-62230000D03*
X103378000Y-62230000D03*
X104648000Y-62230000D03*
D10*
X115697000Y-72390000D03*
D11*
X116967000Y-72390000D03*
X115697000Y-73660000D03*
X116967000Y-73660000D03*
X115697000Y-74930000D03*
D12*
X116967000Y-74930000D03*
D10*
X109220000Y-86360000D03*
D11*
X110490000Y-86360000D03*
X111760000Y-86360000D03*
X113030000Y-86360000D03*
X114300000Y-86360000D03*
X115570000Y-86360000D03*
D13*
X88430000Y-67265000D03*
X88430000Y-72265000D03*
D14*
X85680000Y-65890000D03*
D15*
X89480000Y-66040000D03*
X89480000Y-73490000D03*
D14*
X85680000Y-73640000D03*
D11*
X106680000Y-62230000D03*
X107950000Y-62230000D03*
X109220000Y-62230000D03*
X110490000Y-62230000D03*
X111760000Y-62230000D03*
X113030000Y-62230000D03*
X114300000Y-62230000D03*
X115570000Y-62230000D03*
D10*
X97917000Y-76835000D03*
X97091000Y-72009000D03*
X106680000Y-82677000D03*
X106680000Y-79248000D03*
X100076000Y-80391000D03*
M02*
